{"asset": {"version": "2.0", "generator": "bv-decimate", "extras": {"author": "illustros (https://sketchfab.com/illustros)", "license": "SKETCHFAB Standard (https://sketchfab.com/licenses)", "source": "https://sketchfab.com/3d-models/fantasy-knight-490d800024494d5580e999465b99801c", "title": "Fantasy Knight"}}, "scene": 0, "scenes": [{"nodes": [0]}], "nodes": [{"mesh": 0, "name": "body"}], "meshes": [{"primitives": [{"attributes": {"POSITION": 0, "NORMAL": 1, "TEXCOORD_0": 2}, "indices": 3, "material": 0}]}], "materials": [{"name": "body", "pbrMetallicRoughness": {"baseColorTexture": {"index": 0}, "metallicFactor": 0, "roughnessFactor": 0.85}}], "textures": [{"source": 0, "sampler": 0}], "samplers": [{"magFilter": 9729, "minFilter": 9987, "wrapS": 10497, "wrapT": 10497}], "images": [{"uri": "textures/baseColor.png"}], "buffers": [{"uri": "lo.bin", "byteLength": 399356}], "bufferViews": [{"buffer": 0, "byteOffset": 0, "byteLength": 128280}, {"buffer": 0, "byteOffset": 128280, "byteLength": 128280}, {"buffer": 0, "byteOffset": 256560, "byteLength": 85520}, {"buffer": 0, "byteOffset": 342080, "byteLength": 57276}], "accessors": [{"bufferView": 0, "componentType": 5126, "count": 10690, "type": "VEC3", "min": [-0.2752629816532135, 0.0008450098684988916, -0.2878221869468689], "max": [0.2874787449836731, 0.9910973906517029, 0.28795045614242554]}, {"bufferView": 1, "componentType": 5126, "count": 10690, "type": "VEC3"}, {"bufferView": 2, "componentType": 5126, "count": 10690, "type": "VEC2"}, {"bufferView": 3, "componentType": 5123, "count": 28638, "type": "SCALAR"}]}