{"asset":{"version":"2.0","generator":"bv-base"},"scene":0,"scenes":[{"nodes":[71]}],"nodes":[{"name":"pelvis","matrix":[3.1391648226018167e-7,1.0000000596045497,7.105427402431686e-14,0,2.2660057511618732e-7,-7.937590864977085e-17,-1.000000059604597,0,-1.0000000596044984,3.1391648226019777e-7,-2.2660057511616504e-7,0,1.009812761090383e-14,1.0922771802278899,0.048853999239682804,1.0000000596046483],"children":[1,16,20]},{"name":"spine1","matrix":[0.9999999999997599,8.103867030217436e-14,-3.576278615467709e-7,0,-5.060316348089203e-21,1,2.2660054746010406e-7,0,3.576278615467548e-7,-2.2660054746002765e-7,0.9999999999997599,0,0.09702838045526296,-0.0023819284071439142,-1.1746490146563284e-8,1],"children":[2]},{"name":"spine2","matrix":[1,0,-1.005391164922515e-27,0,1.262177448353619e-29,1,0,0,-1.0053911062981678e-27,1.5777218104420236e-30,1,0,0.10950971302447998,0.0018999354183635506,2.651535327250763e-8,1],"children":[3]},{"name":"spine3","matrix":[1,0,-1.005391164922515e-27,0,1.262177448353619e-29,1,0,0,-1.0053911062981678e-27,1.5777218104420236e-30,1,0,0.10950983223377664,0.01337143113442845,2.6515296429085065e-8,1],"children":[4]},{"name":"spine4","matrix":[1,0,-1.005391164922515e-27,0,1.262177448353619e-29,1,0,0,-1.0053911062981678e-27,1.5777218104420236e-30,1,0,0.10950971302447976,0.030020898600423236,2.651529642908517e-8,1],"children":[5]},{"name":"chest","matrix":[1,0,-1.005391164922515e-27,0,1.262177448353619e-29,1,0,0,-1.0053911062981678e-27,1.5777218104420236e-30,1,0,0.10950971302447998,0.039594786273377314,2.6515353272507314e-8,1],"children":[6,8,12]},{"name":"neck","matrix":[0.858533803821406,-0.512756981793684,3.562195948933082e-7,0,0.5127569817937495,0.8585338038213055,1.1035961155010174e-7,0,-3.624142037652374e-7,8.790662853421678e-8,1.0000000000001044,0,0.14517136142401998,0.032329841800024135,3.515004857908875e-8,1.0000000000000002],"children":[7]},{"name":"head","matrix":[0.9999999999999988,1.1102230246251565e-16,-4.976360902788739e-9,0,-1.1102230246251565e-15,0.9999999999999999,4.363880469094218e-14,0,4.976357400782866e-9,-2.842171109800012e-14,0.999999999999999,0,0.09499979585407736,1.1102230246251565e-16,-1.409263073458816e-8,0.9999999999999998]},{"name":"clavL","matrix":[1.9464636956747771e-7,1.8626446364778286e-9,-0.9999998211861799,0,-0.029693037120442554,0.9995587858432836,-3.917817091433029e-9,0,0.9995589646572538,0.029693040845729435,1.9461580614466673e-7,0,0.08023529520348993,0.014932129525471557,-0.054282612454004044,0.9999999403953552],"children":[9]},{"name":"armL","matrix":[1.0000001192092893,-1.6022363880097146e-8,4.7663235136496946e-7,0,-4.768980375047248e-7,-0.02969305031001568,0.9995591044425963,0,-1.8626319375769642e-9,-0.9995592832565308,-0.029693046584725376,0,0.23451571218008022,-0.01630798484208203,-0.027672941937765927,1],"children":[10]},{"name":"foreL","matrix":[0.4358869117613363,-0.8287470443243227,0.35097108219524165,0,0.28167848371565424,-0.24475442266815522,-0.9277672615763232,0,0.8547862602295705,0.5032627873653027,0.12675501574127354,0,0.17792275751583608,-0.295565239595438,-0.02633987428731626,1],"children":[11]},{"name":"handL","matrix":[0.9356466441740104,-0.0403143409895117,-0.3506284567095527,0,-0.34024021475743504,0.1610551671443302,-0.9264433665961017,0,0.09381947583693534,0.986121628919569,0.13697415650245157,0,0.3641438414042377,-0.048544312760865516,0.0008763748628410895,1.0000000596046483],"children":[24,27,31,35,39]},{"name":"clavR","matrix":[0.0000011266510354719861,-2.113706868639548e-8,-1.0000000596041387,0,0.029693048008953483,-0.9995589642783713,5.4581445692136466e-8,0,-0.9995589642778603,-0.029693048009002115,-0.0000011255264633918586,0,0.08023665583425799,0.014932080640536548,0.05428266653431476,0.9999999403953551],"children":[13]},{"name":"armR","matrix":[0.9999998807907103,-3.46412676321961e-8,4.542783642591529e-7,0,4.551066012936643e-7,0.02969305217266082,-0.9995591044425962,0,2.1137077865773787e-8,0.9995591044425962,0.02969305217266082,0,-0.23451539370194918,0.01630824974536874,0.027672838873156858,0.9999999999999998],"children":[14]},{"name":"foreR","matrix":[0.4358887292019974,0.8287458226722099,-0.3509717664147412,0,0.28167879313623445,0.24475469441551936,0.9277669836991457,0,0.8547854245336637,-0.5032646156014202,-0.12675434906304456,0,-0.1779234012465501,-0.29556622290433565,-0.026339995384812985,0.9999998807907247],"children":[15]},{"name":"handR","matrix":[0.9356466143579559,-0.04031354211960364,-0.3506287453661431,0,-0.340240715046332,0.16105581515223533,-0.9264436886816525,0,0.0938189313407935,0.9861219905485911,0.13697490020957118,0,-0.36414287876989826,0.04854444761469734,-0.0008731243361805863,1.000000178813945],"children":[42,45,49,53,57]},{"name":"thighL","matrix":[3.13916444838469e-7,2.266005481033062e-7,-0.9999999403953552,0,0.9999999403953552,-7.93771449356355e-17,3.13916444838469e-7,0,7.105426679974643e-14,-0.9999999403953552,-2.266005481033062e-7,0,-1.841515384626291e-8,3.2889537537883484e-8,-0.14873265333578076,0.9999999403953552],"children":[17]},{"name":"shinL","matrix":[-0.14140590795077407,0.9676055390444653,0.20915042216462207,0,-0.08188250632425453,0.19911722863636955,-0.976548775117983,0,-0.9865595892832124,-0.1552155236115787,0.0510736299041418,0,0.06811020327910525,-0.44043835317811375,-0.022871409983804665,1],"children":[18]},{"name":"footL","matrix":[0.9715807772015714,0.1764469443210145,-0.1577885239197019,0,-0.13014172727790235,0.9549887874575375,0.26656976886039047,0,0.19772172320469195,-0.2384592520941589,0.950811944957372,0,-0.48771004344810426,2.591968911169751e-7,1.2992051234839153e-7,1.0000000000000002],"children":[19]},{"name":"toeL","matrix":[0.018165502098811997,-0.9923229246740757,0.12233283327599681,0,0.999834794441553,0.01813211248676318,-0.00138630485941327,0,-0.0008424904851186644,0.12233778510554241,0.992488061954818,0,-0.1191034242621278,-0.19662803658690753,-0.0009468191301850726,1.0000000596046483]},{"name":"thighR","matrix":[3.13916444838469e-7,2.266005481033062e-7,-0.9999999403953552,0,0.9999999403953552,-7.93771449356355e-17,3.13916444838469e-7,0,7.105426679974643e-14,-0.9999999403953552,-2.266005481033062e-7,0,0.000002391600571804986,-1.6862667362449457e-7,0.1487324894237518,0.9999999403953552],"children":[21]},{"name":"shinR","matrix":[-0.14139881807302068,-0.967608949465235,-0.2091505089688459,0,-0.08188322817921966,-0.19911716087262765,0.9765490054164432,0,-0.9865648753958612,0.15520907575396425,-0.05107612434096263,0,-0.06811102561639823,-0.44044114360229825,-0.022871611950331553,1.000000059604648],"children":[22]},{"name":"footR","matrix":[0.9715822152848863,0.1764477452088517,-0.15778719317204373,0,-0.1301426947382288,0.9549897003858976,0.26656530403938905,0,0.19772035043051006,-0.2384566969181356,0.9508121161958558,0,0.4877105372763989,-3.532376552373151e-7,0.0000033185529425550087,1.0000000000000002],"children":[23]},{"name":"toeR","matrix":[0.018167288093525122,-0.9923229799936116,0.12232937777585837,0,0.9998343945452257,0.018135376938132622,-0.0013753657055253614,0,-0.0008536825279542729,0.12233490340870404,0.9924883496632589,0,0.1191025848753419,0.19662826364034286,0.0009478583350462921,0.9999999403953548]},{"name":"pinkyL0","matrix":[0.500575,0.865573,0.014433,0,-0.83784,0.488598,-0.24351,0,-0.217828,0.109802,0.969791,0,0.094692,0,0,1],"children":[25]},{"name":"pinkyL1","matrix":[0.341176,0.842855,-0.416167,0,-0.854943,0.462267,0.235333,0,0.390732,0.275509,0.878307,0,0.06132,0,0,1],"children":[26]},{"name":"pinkyL2","matrix":[0.365527,0.835238,-0.410812,0,-0.847031,0.481467,0.225229,0,0.385912,0.265643,0.883462,0,0.02996,0,0,1]},{"name":"ringL0","matrix":[0.9949725369775899,-0.048178712647915053,0.08779657192561721,0,0.06045502740494561,0.9878715459564391,-0.1430215750677528,0,-0.07984114859153141,0.1476103179892667,0.9858177860624961,0,-0.002363414694132704,0.01015869542183212,0.03739002567330793,0.9999999403953552],"children":[28]},{"name":"ringL1","matrix":[0.452728,0.884448,0.113088,0,-0.822167,0.463163,-0.33094,0,-0.345078,0.056849,0.936851,0,0.09328,0,0,1],"children":[29]},{"name":"ringL2","matrix":[0.347516,0.914527,-0.207058,0,-0.917654,0.377088,0.125364,0,0.192728,0.146442,0.970263,0,0.060901,0,0,1],"children":[30]},{"name":"ringL3","matrix":[-0.149282,0.97284,-0.176913,0,-0.967722,-0.107001,0.228179,0,0.203051,0.205265,0.957411,0,0.042982,0,0,1]},{"name":"middleL0","matrix":[0.9715947907389257,0.07942139920632196,0.22292539623989482,0,0.002189078870652627,0.9389460147384304,-0.34405824672255775,0,-0.2366403726746769,0.3347732030955534,0.9121011395509322,0,-0.012854381630419631,0.03246091392192196,0.10140812509695542,0.999999821186087],"children":[32]},{"name":"middleL1","matrix":[0.556762,0.803394,0.211124,0,-0.778891,0.593244,-0.203444,0,-0.288694,-0.051172,0.956053,0,0.083382,0,0,1],"children":[33]},{"name":"middleL2","matrix":[0.106609,0.991182,-0.078696,0,-0.992662,0.110642,0.048787,0,0.057063,0.072918,0.995704,0,0.044633,0,0,1],"children":[34]},{"name":"middleL3","matrix":[-0.37464,0.927083,-0.0127,0,-0.923143,-0.371702,0.098201,0,0.08632,0.048514,0.995086,0,0.031569,0,0,1]},{"name":"indexL0","matrix":[0.992494990176979,-0.015960492799054662,0.1212391474724416,0,0.04429992599742978,0.971028950406799,-0.23482025756149058,0,-0.11397883335553832,0.23842880028656846,0.9644483299277065,0,-0.007030711549976476,0.020921209153553333,0.07329889078290133,0.9999999999999998],"children":[36]},{"name":"indexL1","matrix":[0.473058,0.85888,0.196319,0,-0.774649,0.511626,-0.371697,0,-0.419685,0.023756,0.907359,0,0.089843,0,0,1],"children":[37]},{"name":"indexL2","matrix":[0.138917,0.987304,-0.07702,0,-0.985601,0.145409,0.086293,0,0.096397,0.063923,0.993288,0,0.056755,0,0,1],"children":[38]},{"name":"indexL3","matrix":[-0.291571,0.954835,-0.057236,0,-0.951189,-0.283092,0.122872,0,0.10112,0.090268,0.990771,0,0.032839,0,0,1]},{"name":"thumbL0","matrix":[0.90939,0.403926,-0.099265,0,-0.102482,0.448877,0.887697,0,0.403122,-0.79709,0.4496,0,-0.027987,0.03608,-0.013597,1],"children":[40]},{"name":"thumbL1","matrix":[0.70324,0.702926,-0.106535,0,-0.701842,0.710302,0.053752,0,0.113455,0.03697,0.992855,0,0.058741,0,0,1],"children":[41]},{"name":"thumbL2","matrix":[0.204721,0.973181,-0.104922,0,-0.95952,0.22071,0.174953,0,0.193418,0.064858,0.97897,0,0.047508,0,0,1]},{"name":"pinkyR0","matrix":[0.501151,0.865157,0.018745,0,-0.834541,0.48892,-0.253965,0,-0.228884,0.111632,0.967032,0,-0.094691,0,0,1],"children":[43]},{"name":"pinkyR1","matrix":[0.363944,0.835365,-0.411958,0,-0.846918,0.480876,0.226908,0,0.387652,0.266313,0.882498,0,-0.061322,0.000001,-0.000001,1],"children":[44]},{"name":"pinkyR2","matrix":[0.547621,0.749478,-0.372013,0,-0.756973,0.633203,0.161384,0,0.356514,0.193227,0.91409,0,-0.029961,0.000001,0,1]},{"name":"ringR0","matrix":[0.9949725209678796,-0.04817853136483949,0.08779667316710837,0,0.06045495656705846,0.9878711931502134,-0.1430214123794334,0,-0.07984124765880507,0.14761008292832176,0.9858174259263767,0,0.002361452195265623,-0.010157417458748985,-0.03739058274092491,0.9999999403953556],"children":[46]},{"name":"ringR1","matrix":[0.453097,0.884403,0.111953,0,-0.821945,0.463076,-0.331614,0,-0.345123,0.058235,0.936749,0,-0.093278,0.000001,0,1],"children":[47]},{"name":"ringR2","matrix":[0.327404,0.921545,-0.208714,0,-0.924738,0.357879,0.129547,0,0.194078,0.150591,0.969359,0,-0.060903,-0.000002,0,1],"children":[48]},{"name":"ringR3","matrix":[-0.176105,0.968476,-0.176187,0,-0.963168,-0.13258,0.233943,0,0.203209,0.210896,0.956153,0,-0.042981,0,0,1]},{"name":"middleR0","matrix":[0.9715949188668137,0.07942313242672802,0.2229241496828291,0,0.0021870329370077962,0.9389456108757739,-0.3440586699535278,0,-0.23663980080062974,0.33477295852456723,0.9121008720415551,0,0.012851070423034017,-0.032458561529148056,-0.10140928784712623,0.9999999403953553],"children":[50]},{"name":"middleR1","matrix":[0.555311,0.803532,0.214397,0,-0.780381,0.592579,-0.199641,0,-0.287465,-0.056449,0.956126,0,-0.083379,-0.000002,0,1],"children":[51]},{"name":"middleR2","matrix":[0.088797,0.992971,-0.078253,0,-0.994352,0.092957,0.051218,0,0.058132,0.073263,0.995617,0,-0.044633,-0.000001,0,1],"children":[52]},{"name":"middleR3","matrix":[-0.391301,0.92019,-0.011573,0,-0.91647,-0.388517,0.095591,0,0.083466,0.048011,0.995353,0,-0.031566,0.000004,0,1]},{"name":"indexR0","matrix":[0.9924949933598357,-0.015960392908302604,0.12123931358064863,0,0.04429995141182935,0.9710286298470329,-0.23482073795865752,0,-0.11397898751578692,0.23842919090186498,0.9644479601330006,0,0.0070305391502948344,-0.02092061989247873,-0.07329897601707805,0.9999999999999999],"children":[54]},{"name":"indexR1","matrix":[0.473547,0.858984,0.194679,0,-0.774385,0.511357,-0.372614,0,-0.41962,0.025694,0.907336,0,-0.089846,-0.000001,0,1],"children":[55]},{"name":"indexR2","matrix":[0.157689,0.984487,-0.076936,0,-0.9828,0.164046,0.084808,0,0.096113,0.062239,0.993423,0,-0.056752,0.000001,0,1],"children":[56]},{"name":"indexR3","matrix":[-0.273163,0.960236,-0.057696,0,-0.956631,-0.264849,0.121295,0,0.101191,0.088327,0.990938,0,-0.03284,0.000001,0,1]},{"name":"thumbR0","matrix":[0.90749,0.409485,-0.093725,0,-0.101689,0.43062,0.896786,0,0.407581,-0.804293,0.432424,0,0.027985,-0.036079,0.013595,1],"children":[58]},{"name":"thumbR1","matrix":[0.700984,0.704712,-0.109551,0,-0.703939,0.708336,0.052242,0,0.114415,0.040496,0.992607,0,-0.05874,0.000001,0.000001,1],"children":[59]},{"name":"thumbR2","matrix":[0.190412,0.976155,-0.104229,0,-0.962092,0.20667,0.177951,0,0.195249,0.066394,0.978504,0,-0.047508,0,0,1]},{"name":"base_body","mesh":0,"skin":0},{"name":"hair_long","mesh":1,"skin":0},{"name":"band_L","mesh":2,"skin":0},{"name":"band_R","mesh":3,"skin":0},{"name":"legs","mesh":4,"skin":0},{"name":"gauntlet_L","mesh":5,"skin":0},{"name":"gauntlet_R","mesh":6,"skin":0},{"name":"pauldron_L","mesh":7,"skin":0},{"name":"pauldron_R","mesh":8,"skin":0},{"name":"FantasyWarrior_sword_6_characters_0","mesh":9,"skin":0},{"name":"FantasyWarrior_shield_6_characters_0","mesh":10,"skin":0},{"name":"root","children":[0,60,61,62,63,64,65,66,67,68,69,70]}],"meshes":[{"name":"base_body","primitives":[{"attributes":{"POSITION":1,"JOINTS_0":2,"WEIGHTS_0":3,"NORMAL":4,"TEXCOORD_0":5},"indices":6,"material":0}]},{"name":"hair_long","primitives":[{"attributes":{"POSITION":7,"JOINTS_0":8,"WEIGHTS_0":9,"NORMAL":10,"TEXCOORD_0":11},"indices":12,"material":1}]},{"name":"band_L","primitives":[{"attributes":{"POSITION":13,"JOINTS_0":14,"WEIGHTS_0":15,"NORMAL":16,"TEXCOORD_0":17},"indices":18,"material":2}]},{"name":"band_R","primitives":[{"attributes":{"POSITION":19,"JOINTS_0":20,"WEIGHTS_0":21,"NORMAL":22,"TEXCOORD_0":23},"indices":24,"material":2}]},{"name":"legs","primitives":[{"attributes":{"POSITION":25,"JOINTS_0":26,"WEIGHTS_0":27,"NORMAL":28,"TEXCOORD_0":29},"indices":30,"material":2}]},{"name":"gauntlet_L","primitives":[{"attributes":{"POSITION":31,"JOINTS_0":32,"WEIGHTS_0":33,"NORMAL":34,"TEXCOORD_0":35},"indices":36,"material":2}]},{"name":"gauntlet_R","primitives":[{"attributes":{"POSITION":37,"JOINTS_0":38,"WEIGHTS_0":39,"NORMAL":40,"TEXCOORD_0":41},"indices":42,"material":2}]},{"name":"pauldron_L","primitives":[{"attributes":{"POSITION":43,"JOINTS_0":44,"WEIGHTS_0":45,"NORMAL":46,"TEXCOORD_0":47},"indices":48,"material":4}]},{"name":"pauldron_R","primitives":[{"attributes":{"POSITION":49,"JOINTS_0":50,"WEIGHTS_0":51,"NORMAL":52,"TEXCOORD_0":53},"indices":54,"material":4}]},{"name":"FantasyWarrior_sword_6_characters_0","primitives":[{"attributes":{"POSITION":55,"JOINTS_0":56,"WEIGHTS_0":57,"NORMAL":58,"TEXCOORD_0":59},"indices":60,"material":3}]},{"name":"FantasyWarrior_shield_6_characters_0","primitives":[{"attributes":{"POSITION":61,"JOINTS_0":62,"WEIGHTS_0":63,"NORMAL":64,"TEXCOORD_0":65},"indices":66,"material":3}]}],"skins":[{"joints":[0,1,2,3,4,5,6,7,8,9,10,11,12,13,14,15,16,17,18,19,20,21,22,23,24,25,26,27,28,29,30,31,32,33,34,35,36,37,38,39,40,41,42,43,44,45,46,47,48,49,50,51,52,53,54,55,56,57,58,59],"inverseBindMatrices":0,"skeleton":0}],"materials":[{"name":"base","pbrMetallicRoughness":{"baseColorTexture":{"index":0},"metallicFactor":0,"roughnessFactor":0.9}},{"name":"hair","pbrMetallicRoughness":{"baseColorTexture":{"index":1},"metallicFactor":0,"roughnessFactor":0.9},"alphaMode":"MASK","alphaCutoff":0.5,"doubleSided":true},{"name":"wear","pbrMetallicRoughness":{"baseColorTexture":{"index":0},"metallicFactor":0,"roughnessFactor":0.85},"doubleSided":true},{"name":"kit","pbrMetallicRoughness":{"baseColorTexture":{"index":2},"metallicFactor":0,"roughnessFactor":0.9}},{"name":"leather","pbrMetallicRoughness":{"baseColorTexture":{"index":3},"metallicFactor":0.25,"roughnessFactor":0.62},"doubleSided":true}],"textures":[{"source":0,"sampler":0},{"source":1,"sampler":0},{"source":2,"sampler":0},{"source":3,"sampler":0}],"samplers":[{"magFilter":9729,"minFilter":9987,"wrapS":10497,"wrapT":10497}],"images":[{"uri":"atlas.jpg"},{"uri":"hair.png"},{"uri":"6_characters_baseColor.jpg"},{"uri":"leather_tile.png"}],"buffers":[{"uri":"scene.bin","byteLength":1638380}],"bufferViews":[{"buffer":0,"byteOffset":0,"byteLength":3840},{"buffer":0,"byteOffset":3840,"byteLength":58620,"target":34962},{"buffer":0,"byteOffset":62460,"byteLength":39080,"target":34962},{"buffer":0,"byteOffset":101540,"byteLength":78160,"target":34962},{"buffer":0,"byteOffset":179700,"byteLength":58620,"target":34962},{"buffer":0,"byteOffset":238320,"byteLength":39080,"target":34962},{"buffer":0,"byteOffset":277400,"byteLength":95988,"target":34963},{"buffer":0,"byteOffset":373388,"byteLength":73356,"target":34962},{"buffer":0,"byteOffset":446744,"byteLength":48904,"target":34962},{"buffer":0,"byteOffset":495648,"byteLength":97808,"target":34962},{"buffer":0,"byteOffset":593456,"byteLength":73356,"target":34962},{"buffer":0,"byteOffset":666812,"byteLength":48904,"target":34962},{"buffer":0,"byteOffset":715716,"byteLength":71976,"target":34963},{"buffer":0,"byteOffset":787692,"byteLength":10140,"target":34962},{"buffer":0,"byteOffset":797832,"byteLength":6760,"target":34962},{"buffer":0,"byteOffset":804592,"byteLength":13520,"target":34962},{"buffer":0,"byteOffset":818112,"byteLength":10140,"target":34962},{"buffer":0,"byteOffset":828252,"byteLength":6760,"target":34962},{"buffer":0,"byteOffset":835012,"byteLength":14388,"target":34963},{"buffer":0,"byteOffset":849400,"byteLength":10128,"target":34962},{"buffer":0,"byteOffset":859528,"byteLength":6752,"target":34962},{"buffer":0,"byteOffset":866280,"byteLength":13504,"target":34962},{"buffer":0,"byteOffset":879784,"byteLength":10128,"target":34962},{"buffer":0,"byteOffset":889912,"byteLength":6752,"target":34962},{"buffer":0,"byteOffset":896664,"byteLength":14388,"target":34963},{"buffer":0,"byteOffset":911052,"byteLength":37164,"target":34962},{"buffer":0,"byteOffset":948216,"byteLength":24776,"target":34962},{"buffer":0,"byteOffset":972992,"byteLength":49552,"target":34962},{"buffer":0,"byteOffset":1022544,"byteLength":37164,"target":34962},{"buffer":0,"byteOffset":1059708,"byteLength":24776,"target":34962},{"buffer":0,"byteOffset":1084484,"byteLength":57336,"target":34963},{"buffer":0,"byteOffset":1141820,"byteLength":28776,"target":34962},{"buffer":0,"byteOffset":1170596,"byteLength":19184,"target":34962},{"buffer":0,"byteOffset":1189780,"byteLength":38368,"target":34962},{"buffer":0,"byteOffset":1228148,"byteLength":28776,"target":34962},{"buffer":0,"byteOffset":1256924,"byteLength":19184,"target":34962},{"buffer":0,"byteOffset":1276108,"byteLength":36000,"target":34963},{"buffer":0,"byteOffset":1312108,"byteLength":28704,"target":34962},{"buffer":0,"byteOffset":1340812,"byteLength":19136,"target":34962},{"buffer":0,"byteOffset":1359948,"byteLength":38272,"target":34962},{"buffer":0,"byteOffset":1398220,"byteLength":28704,"target":34962},{"buffer":0,"byteOffset":1426924,"byteLength":19136,"target":34962},{"buffer":0,"byteOffset":1446060,"byteLength":36000,"target":34963},{"buffer":0,"byteOffset":1482060,"byteLength":4980,"target":34962},{"buffer":0,"byteOffset":1487040,"byteLength":3320,"target":34962},{"buffer":0,"byteOffset":1490360,"byteLength":6640,"target":34962},{"buffer":0,"byteOffset":1497000,"byteLength":4980,"target":34962},{"buffer":0,"byteOffset":1501980,"byteLength":3320,"target":34962},{"buffer":0,"byteOffset":1505300,"byteLength":6156,"target":34963},{"buffer":0,"byteOffset":1511456,"byteLength":5004,"target":34962},{"buffer":0,"byteOffset":1516460,"byteLength":3336,"target":34962},{"buffer":0,"byteOffset":1519796,"byteLength":6672,"target":34962},{"buffer":0,"byteOffset":1526468,"byteLength":5004,"target":34962},{"buffer":0,"byteOffset":1531472,"byteLength":3336,"target":34962},{"buffer":0,"byteOffset":1534808,"byteLength":6156,"target":34963},{"buffer":0,"byteOffset":1540964,"byteLength":7776,"target":34962},{"buffer":0,"byteOffset":1548740,"byteLength":5184,"target":34962},{"buffer":0,"byteOffset":1553924,"byteLength":10368,"target":34962},{"buffer":0,"byteOffset":1564292,"byteLength":7776,"target":34962},{"buffer":0,"byteOffset":1572068,"byteLength":5184,"target":34962},{"buffer":0,"byteOffset":1577252,"byteLength":4368,"target":34963},{"buffer":0,"byteOffset":1581620,"byteLength":11016,"target":34962},{"buffer":0,"byteOffset":1592636,"byteLength":7344,"target":34962},{"buffer":0,"byteOffset":1599980,"byteLength":14688,"target":34962},{"buffer":0,"byteOffset":1614668,"byteLength":11016,"target":34962},{"buffer":0,"byteOffset":1625684,"byteLength":7344,"target":34962},{"buffer":0,"byteOffset":1633028,"byteLength":5352,"target":34963}],"accessors":[{"bufferView":0,"componentType":5126,"count":60,"type":"MAT4"},{"bufferView":1,"componentType":5126,"count":4885,"type":"VEC3","min":[-0.687529981136322,0.8660230040550232,-0.23814500868320465],"max":[0.687529981136322,2.0772650241851807,0.2966020107269287]},{"bufferView":2,"componentType":5123,"count":4885,"type":"VEC4"},{"bufferView":3,"componentType":5126,"count":4885,"type":"VEC4"},{"bufferView":4,"componentType":5126,"count":4885,"type":"VEC3"},{"bufferView":5,"componentType":5126,"count":4885,"type":"VEC2"},{"bufferView":6,"componentType":5125,"count":23997,"type":"SCALAR"},{"bufferView":7,"componentType":5126,"count":6113,"type":"VEC3","min":[-0.19234172999858856,1.576041579246521,-0.36148250102996826],"max":[0.17496229708194733,2.1051297187805176,0.16525867581367493]},{"bufferView":8,"componentType":5123,"count":6113,"type":"VEC4"},{"bufferView":9,"componentType":5126,"count":6113,"type":"VEC4"},{"bufferView":10,"componentType":5126,"count":6113,"type":"VEC3"},{"bufferView":11,"componentType":5126,"count":6113,"type":"VEC2"},{"bufferView":12,"componentType":5125,"count":17994,"type":"SCALAR"},{"bufferView":13,"componentType":5126,"count":845,"type":"VEC3","min":[0.4678693413734436,1.0375841856002808,-0.11891981214284897],"max":[0.6949504017829895,1.3479626178741455,0.16430556774139404]},{"bufferView":14,"componentType":5123,"count":845,"type":"VEC4"},{"bufferView":15,"componentType":5126,"count":845,"type":"VEC4"},{"bufferView":16,"componentType":5126,"count":845,"type":"VEC3"},{"bufferView":17,"componentType":5126,"count":845,"type":"VEC2"},{"bufferView":18,"componentType":5125,"count":3597,"type":"SCALAR"},{"bufferView":19,"componentType":5126,"count":844,"type":"VEC3","min":[-0.6949504017829895,1.0375841856002808,-0.11891981214284897],"max":[-0.4678693413734436,1.3479626178741455,0.16430556774139404]},{"bufferView":20,"componentType":5123,"count":844,"type":"VEC4"},{"bufferView":21,"componentType":5126,"count":844,"type":"VEC4"},{"bufferView":22,"componentType":5126,"count":844,"type":"VEC3"},{"bufferView":23,"componentType":5126,"count":844,"type":"VEC2"},{"bufferView":24,"componentType":5125,"count":3597,"type":"SCALAR"},{"bufferView":25,"componentType":5126,"count":3097,"type":"VEC3","min":[-0.45754900574684143,0.00023599914857186377,-0.24026000499725342],"max":[0.45754900574684143,1.2250779867172241,0.28653600811958313]},{"bufferView":26,"componentType":5123,"count":3097,"type":"VEC4"},{"bufferView":27,"componentType":5126,"count":3097,"type":"VEC4"},{"bufferView":28,"componentType":5126,"count":3097,"type":"VEC3"},{"bufferView":29,"componentType":5126,"count":3097,"type":"VEC2"},{"bufferView":30,"componentType":5125,"count":14334,"type":"SCALAR"},{"bufferView":31,"componentType":5126,"count":2398,"type":"VEC3","min":[0.3113628327846527,0.8547130823135376,-0.20715680718421936],"max":[0.7018598914146423,1.6081925630569458,0.20729421079158783]},{"bufferView":32,"componentType":5123,"count":2398,"type":"VEC4"},{"bufferView":33,"componentType":5126,"count":2398,"type":"VEC4"},{"bufferView":34,"componentType":5126,"count":2398,"type":"VEC3"},{"bufferView":35,"componentType":5126,"count":2398,"type":"VEC2"},{"bufferView":36,"componentType":5125,"count":9000,"type":"SCALAR"},{"bufferView":37,"componentType":5126,"count":2392,"type":"VEC3","min":[-0.7018598914146423,0.8547130823135376,-0.20715680718421936],"max":[-0.3113628327846527,1.6081925630569458,0.20729421079158783]},{"bufferView":38,"componentType":5123,"count":2392,"type":"VEC4"},{"bufferView":39,"componentType":5126,"count":2392,"type":"VEC4"},{"bufferView":40,"componentType":5126,"count":2392,"type":"VEC3"},{"bufferView":41,"componentType":5126,"count":2392,"type":"VEC2"},{"bufferView":42,"componentType":5125,"count":9000,"type":"SCALAR"},{"bufferView":43,"componentType":5126,"count":415,"type":"VEC3","min":[0.1404244601726532,1.5933371782302856,-0.22895869612693787],"max":[0.498657763004303,1.8423436880111694,0.2495272308588028]},{"bufferView":44,"componentType":5123,"count":415,"type":"VEC4"},{"bufferView":45,"componentType":5126,"count":415,"type":"VEC4"},{"bufferView":46,"componentType":5126,"count":415,"type":"VEC3"},{"bufferView":47,"componentType":5126,"count":415,"type":"VEC2"},{"bufferView":48,"componentType":5125,"count":1539,"type":"SCALAR"},{"bufferView":49,"componentType":5126,"count":417,"type":"VEC3","min":[-0.4987601339817047,1.596131443977356,-0.22942590713500977],"max":[-0.16294269263744354,1.841539978981018,0.24656318128108978]},{"bufferView":50,"componentType":5123,"count":417,"type":"VEC4"},{"bufferView":51,"componentType":5126,"count":417,"type":"VEC4"},{"bufferView":52,"componentType":5126,"count":417,"type":"VEC3"},{"bufferView":53,"componentType":5126,"count":417,"type":"VEC2"},{"bufferView":54,"componentType":5125,"count":1539,"type":"SCALAR"},{"bufferView":55,"componentType":5126,"count":648,"type":"VEC3","min":[-0.6494071212247584,0.8681006325948055,-0.05308977470515347],"max":[-0.34178011326348523,1.113546766208392,1.0108994938361826]},{"bufferView":56,"componentType":5123,"count":648,"type":"VEC4"},{"bufferView":57,"componentType":5126,"count":648,"type":"VEC4"},{"bufferView":58,"componentType":5126,"count":648,"type":"VEC3"},{"bufferView":59,"componentType":5126,"count":648,"type":"VEC2"},{"bufferView":60,"componentType":5125,"count":1092,"type":"SCALAR"},{"bufferView":61,"componentType":5126,"count":918,"type":"VEC3","min":[0.3687044680118561,0.8461654782295227,-0.3711121380329132],"max":[0.6698442101478577,1.3586450815200806,0.5190806984901428]},{"bufferView":62,"componentType":5123,"count":918,"type":"VEC4"},{"bufferView":63,"componentType":5126,"count":918,"type":"VEC4"},{"bufferView":64,"componentType":5126,"count":918,"type":"VEC3"},{"bufferView":65,"componentType":5126,"count":918,"type":"VEC2"},{"bufferView":66,"componentType":5125,"count":1338,"type":"SCALAR"}]}