{"asset":{"version":"2.0","generator":"bv-base"},"scene":0,"scenes":[{"nodes":[73]}],"nodes":[{"name":"pelvis","matrix":[3.1391646371226045e-7,0.9999999999999506,7.105427357601002e-14,0,2.266005615370048e-7,0,-0.9999999999999742,0,-0.999999999999925,3.13916463545727e-7,-2.266005614259825e-7,0,0,1.0866967543002035,-0.04340950052851429,1],"children":[1,16,20]},{"name":"spine1","matrix":[0.999999999999936,8.103867228799801e-14,-3.576278615468167e-7,0,-3.074506977946689e-21,0.9999999999999744,2.2660054746008728e-7,0,3.576278615468259e-7,-2.2660054746007278e-7,0.9999999999999104,0,0.07618398514795843,0.006319058516919433,2.5347309404177842e-8,1],"children":[2]},{"name":"spine2","matrix":[1,-6.310887241768095e-30,-2.931217365969773e-35,0,6.310887241768095e-30,1,-7.888609052210118e-31,0,2.931217365969773e-35,7.888609052210118e-31,1,0,0.0859710134740362,0.007130908569660942,5.773334633280003e-8,1],"children":[3]},{"name":"spine3","matrix":[1,-6.310887241768095e-30,-2.931217365969773e-35,0,6.310887241768095e-30,1,-7.888609052210118e-31,0,2.931217365969773e-35,7.888609052210118e-31,1,0,0.08659657431339288,0.007182830771259467,5.815343817258678e-8,1],"children":[4]},{"name":"spine4","matrix":[1,-6.310887241768095e-30,-2.931217365969773e-35,0,6.310887241768095e-30,1,-7.888609052210118e-31,0,2.931217365969773e-35,7.888609052210118e-31,1,0,0.0891295445778748,0.007392880632205747,5.985443998074436e-8,1],"children":[5]},{"name":"chest","matrix":[1,-6.310887241768095e-30,-2.931217365969773e-35,0,6.310887241768095e-30,1,-7.888609052210118e-31,0,2.931217365969773e-35,7.888609052210118e-31,1,0,0.09140414757768736,0.007581527869145874,6.138193672095005e-8,1],"children":[6,8,12]},{"name":"neck","matrix":[0.8585337975187225,-0.5127569780295091,3.562195846128951e-7,0,0.5127569780295047,0.8585337975187919,1.1035960723480499e-7,0,-3.6241421143051763e-7,8.790662502906168e-8,0.9999999999999305,0,0.1167417165043301,0.009683130880385731,7.839723738245485e-8,1],"children":[7]},{"name":"head","matrix":[1,6.1062275319358815e-16,-4.976359151785809e-9,0,-6.106225738940844e-16,1,3.6030257895990516e-14,0,4.976359151785809e-9,-3.603025789295184e-14,1,0,0.08952757886064724,0.023163672922956437,2.5144888327749415e-8,1]},{"name":"clavL","matrix":[1.9459928479736988e-7,2.654890427292167e-9,-1.0000000000117562,0,-0.029693044600533194,0.9995590643390521,-3.12487508438708e-9,0,0.9995590643508081,0.02969304460053324,1.9459230560237017e-7,0,0.08897884086065014,0.009683079336782328,-0.0661212887095202,1],"children":[9]},{"name":"armL","matrix":[0.9999999999998863,-1.6022293516565333e-8,4.7663236338362614e-7,0,-4.768979498534354e-7,-0.029693044600109353,0.9995590643389456,0,-1.8625626921763929e-9,-0.9995590643390593,-0.029693044600113794,0,0.13939892175573965,0.0016596057472674747,-0.0558656883704908,1],"children":[10]},{"name":"foreL","matrix":[0.4358869969981437,-0.828747123602894,0.35097115274408286,0,0.2816785604183694,-0.24475451687901062,-0.927767458576114,0,0.8547863671931226,0.5032628276676867,0.1267549695315957,0,0.11872555122573186,-0.19722685554157163,-0.017576256897321098,1],"children":[11]},{"name":"handL","matrix":[0.9356465456381963,-0.04031431391583318,-0.35062843184808534,0,-0.34024027988889793,0.16105520228402836,-0.9264436124927083,0,0.09381947062244675,0.9861216817821777,0.13697419038298841,0,0.28252556387612815,-0.03766371830129678,0.000679981024805168,1],"children":[24,27,31,35,39]},{"name":"clavR","matrix":[0.0000011266509742924313,-2.113706810448479e-8,-0.9999999999993652,0,0.029693050975745656,-0.9995590641496626,5.45814528261912e-8,0,-0.9995590641490288,-0.0296930509757883,-0.0000011255265695009342,0,0.08897875205381746,0.009683079336780484,0.06612140821593215,1],"children":[13]},{"name":"armR","matrix":[0.9999999999998962,-3.46412014742356e-8,4.542783578882578e-7,0,4.551066532354679e-7,0.029693050975704627,-0.9995590641495616,0,2.1137016488667804e-8,0.9995590641496647,0.029693050975717394,0,-0.13939892053781744,-0.0016596035081526338,0.05586569147602985,1],"children":[14]},{"name":"foreR","matrix":[0.43588875070225175,0.8287458736851598,-0.35097185247548124,0,0.28167885025578276,0.24475485392963436,0.9277672354148722,0,0.8547853471479434,-0.503264636787243,-0.12675429177563124,0,-0.11872550025726919,-0.1972268852814796,-0.017576267465468382,1],"children":[15]},{"name":"handR","matrix":[0.9356464923898602,-0.0403135040371565,-0.3506286667807108,0,-0.3402405758759268,0.161055708325884,-0.9264434144548213,0,0.09381892721508953,0.9861216309620919,0.13697491896507497,0,-0.28252552897875827,0.03766392443273174,-0.0006775817191345124,1],"children":[42,45,49,53,57]},{"name":"thighL","matrix":[3.1391646371226045e-7,2.266005615370048e-7,-0.999999999999925,0,0.9999999999999506,0,3.13916463545727e-7,0,7.105427357601002e-14,-0.9999999999999742,-2.266005614259825e-7,0,-0.06050909632062171,0.020744810681205445,-0.11337704174715665,1],"children":[17]},{"name":"shinL","matrix":[-0.14140588867800052,0.9676055386687874,0.20915042052895771,0,-0.08188250534402558,0.19911722125790643,-0.9765488155114168,0,-0.9865594924729778,-0.15521551241951176,0.051073617100652724,0,0.07445855907650618,-0.4814903430149109,-0.025003188207552277,1],"children":[18]},{"name":"footL","matrix":[0.971580801086488,0.17644694995055674,-0.15778853196160628,0,-0.13014173297292544,0.9549888326445604,0.2665698011242115,0,0.1977217142962727,-0.2384592279316186,0.9508119268915377,0,-0.42168260588928613,2.2404907457085343e-7,1.0389807747479551e-7,1],"children":[19]},{"name":"toeL","matrix":[0.018165500481928887,-0.9923228773317936,0.12233283561991898,0,0.9998346392129933,0.018132107483354032,-0.0013863126223958716,0,-0.0008424824529279784,0.12233778956975494,0.9924881638960772,0,-0.11471554926026044,-0.16256553702669052,-0.0007192852603788158,1]},{"name":"thighR","matrix":[3.1391646371226045e-7,2.266005615370048e-7,-0.999999999999925,0,0.9999999999999506,0,3.13916463545727e-7,0,7.105427357601002e-14,-0.9999999999999742,-2.266005614259825e-7,0,-0.06050916750245273,0.020744759298609257,0.1133770131590911,1],"children":[21]},{"name":"shinR","matrix":[-0.14139847731395894,-0.9676066962308139,-0.20915003082356515,0,-0.08188320079449812,-0.19911709896364904,0.9765487723907894,0,-0.9865604874572347,0.15520839165328526,-0.051075869403983676,0,-0.07445899609318965,-0.48149027235814945,-0.025003247432638178,1],"children":[22]},{"name":"footR","matrix":[0.9715809472782979,0.17644722481220568,-0.15778732437869292,0,-0.13014301708327883,0.954989619097046,0.26656635667277206,0,0.19772015067508242,-0.23845587487291034,0.95081309295939,0,0.4216826023971306,-3.016062090910321e-7,0.0000028708394045756647,1],"children":[23]},{"name":"toeR","matrix":[0.01816730765537855,-0.9923232414944214,0.12232979104767742,0,0.9998346189540288,0.01813522931528444,-0.0013757381276972916,0,-0.0008533046445095283,0.12233455073832608,0.9924885540432883,0,0.11471535684492537,0.16256566570652167,0.0007202123002211548,1]},{"name":"pinkyL0","matrix":[0.500575273707055,0.86557267278051,0.014433425841206146,0,-0.8378397992265347,0.48859741211009555,-0.2435097935022651,0,-0.21782756133682746,0.10980208028575801,0.9697910370254672,0,0.10509632172103944,0.010355822298726468,0.019770116167973296,1],"children":[25]},{"name":"pinkyL1","matrix":[0.3411758759695044,0.84285470760955,-0.4161670290104913,0,-0.8549430739384621,0.4622669044256287,0.23533311696208103,0,0.39073187034032986,0.27550912412269635,0.878307084129503,0,0.05024617229553637,4.026003025663777e-8,-5.194680072727331e-8,1],"children":[26]},{"name":"pinkyL2","matrix":[0.36552734075897786,0.8352384422128872,-0.4108119834952523,0,-0.8470309359533109,0.4814669950090359,0.2252290129078191,0,0.385912340657269,0.26564310525056356,0.8834621677898505,0,0.031036757740748808,-3.448348724535005e-8,5.2537886983602955e-9,1]},{"name":"ringL0","matrix":[0.9949726509613492,-0.048178671912028466,0.08779657973442986,0,0.060455068326481294,0.9878714566318428,-0.1430215714111686,0,-0.07984114574523252,0.1476103002776996,0.9858177269159629,0,-0.0027593785561284747,0.011861010635396949,0.04365535019975315,1],"children":[28]},{"name":"ringL1","matrix":[0.4527280321149113,0.8844480975396288,0.11308813921856992,0,-0.8221670621565581,0.4631628535025758,-0.3309403690979222,0,-0.3450777975735934,0.05684864776180437,0.9368508680520485,0,0.1089109331251701,-3.141477785055351e-7,2.9679497179357917e-8,1],"children":[29]},{"name":"ringL2","matrix":[0.3475159782306517,0.9145269398342138,-0.20705826769775026,0,-0.9176538879960147,0.377087861010893,0.12536383739413573,0,0.1927277659039368,0.146441886760086,0.9702632541125475,0,0.05036523656923374,-4.963136889229308e-8,3.1992407794126376e-8,1],"children":[30]},{"name":"ringL3","matrix":[-0.1492812902308247,0.9728395972597803,-0.17691252103230717,0,-0.9677215631168694,-0.10700124177684422,0.22817875154432818,0,0.20305146730132514,0.20526491268873417,0.9574113070080926,0,0.03103536318288107,-1.0404045130301721e-8,-3.0801938642917304e-9,1]},{"name":"middleL0","matrix":[0.9715948382841243,0.07942140259360485,0.22292534860990343,0,0.0021890788780207227,0.9389457811763026,-0.3440581753055981,0,-0.23664039844550683,0.3347731483721722,0.9121010147040346,0,-0.01500815185701167,0.03790044965646231,0.11840075597209697,1],"children":[32]},{"name":"middleL1","matrix":[0.5567621720817132,0.8033944313286939,0.21112388381482095,0,-0.7788912477708306,0.5932442988814879,-0.2034444567358109,0,-0.28869418205604347,-0.05117236110025897,0.9560528546967476,0,0.08405745568726276,0.0065046074205777245,-0.04768516288025109,1],"children":[33]},{"name":"middleL2","matrix":[0.10660919520627599,0.9911818215904786,-0.0786958379944429,0,-0.9926621954059265,0.1106418571357497,0.04878631282116286,0,0.05706315957737819,0.07291731656731913,0.9957042033485173,0,0.0348538842190765,1.0168745635460996e-8,-1.9672809038057126e-8,1],"children":[34]},{"name":"middleL3","matrix":[-0.3746398830428894,0.9270834204106418,-0.012700024414156144,0,-0.9231434486407052,-0.3717024705926768,0.09820105687691037,0,0.08631994121963235,0.04851397674589834,0.9950855550211075,0,0.021520045502687293,-5.084791499723599e-8,-1.3130987869573122e-9,1]},{"name":"indexL0","matrix":[0.9924950059028327,-0.01596046777580637,0.12123913035293532,0,0.04429994548605643,0.9710288227484682,-0.23482022960343066,0,-0.11397884931113766,0.23842879203119097,0.9644483050178128,0,-0.008208823804647216,0.024426902582421195,0.08558133212648861,1],"children":[36]},{"name":"indexL1","matrix":[0.47305810603962417,0.8588800024746885,0.19631906455531922,0,-0.7746487035941727,0.5116256466915602,-0.371696904368484,0,-0.41968490535003067,0.023755926551606937,0.907358935114942,0,0.09856950209674316,-0.0036222742420897597,-0.03574419597333237,1],"children":[37]},{"name":"indexL2","matrix":[0.13891698500449845,0.9873044215853894,-0.07701989929681026,0,-0.98560117437992,0.1454090975043003,0.08629330105595118,0,0.09639715156929622,0.06392329672466798,0.9932881764211934,0,0.04805908259043315,-2.835206998799797e-8,-1.1072155114088232e-8,1],"children":[38]},{"name":"indexL3","matrix":[-0.2915710153456008,0.9548353049055768,-0.057236081874357664,0,-0.9511893582843051,-0.28309228397969943,0.12287248849252863,0,0.10111989541700392,0.09026840115748669,0.9907706006511646,0,0.029572996035059494,2.4469457122388633e-8,2.9364236596039674e-8,1]},{"name":"thumbL0","matrix":[0.9093899769269884,0.403926133595457,-0.09926503773223697,0,-0.1024819282621185,0.44887747666404076,0.8876972799201346,0,0.4031219709926952,-0.7970901360552349,0.4495998075695473,0,0.048112219562609276,0.02052499599515415,-0.008076968905847571,1],"children":[40]},{"name":"thumbL1","matrix":[0.7032396029529937,0.7029256270638843,-0.10653460206892608,0,-0.7018418224211908,0.7103018960244245,0.05375193615119314,0,0.11345534329259675,0.03696994936898605,0.9928550286263482,0,0.05014240939810587,3.833327046065538e-8,1.0247158130707867e-8,1],"children":[41]},{"name":"thumbL2","matrix":[0.2047211986357742,0.9731806759711724,-0.10492186443393076,0,-0.9595200037658734,0.220709768092352,0.17495300979217993,0,0.19341816898403946,0.06485803865748868,0.9789702991374476,0,0.034041767763309916,-4.1889190388957886e-8,-5.042253403437363e-9,1]},{"name":"pinkyR0","matrix":[0.5011513640010521,0.8651566153894288,0.01874465059122772,0,-0.8345413783300693,0.4889196138016261,-0.25396519509770576,0,-0.2288842915816362,0.11163182034695798,0.967031705334641,0,-0.1050955524253509,-0.010354169061376754,-0.01976990990286337,1],"children":[43]},{"name":"pinkyR1","matrix":[0.3639439600343678,0.8353653580315601,-0.4119581534238374,0,-0.8469183245540897,0.48087635802234807,0.22690810044246373,0,0.38765210318798476,0.26631307349192823,0.8824982692268317,0,-0.05024611745761523,9.193126073378521e-7,-7.042178270296601e-7,1],"children":[44]},{"name":"pinkyR2","matrix":[0.5476211375999159,0.7494779161386325,-0.37201337013438407,0,-0.7569735892865672,0.6332031162105801,0.16138402195409082,0,0.35651378579356596,0.19322699252423328,0.9140903953049669,0,-0.031036737066947054,0.0000012711900488297095,-2.286590010365866e-7,1]},{"name":"ringR0","matrix":[0.9949726474560744,-0.0481785552258336,0.08779668348135113,0,0.060454956387455114,0.987871484057478,-0.14302142928106443,0,-0.07984127417673238,0.14761015480568712,0.9858177382941004,0,0.002757079462574672,-0.011859483604520007,-0.04365585905655336,1],"children":[46]},{"name":"ringR1","matrix":[0.4530971636424028,0.8844035353094457,0.1119526803846732,0,-0.8219445599258819,0.46307577407592115,-0.33161426759334367,0,-0.34512339289217553,0.05823460135843267,0.9367489425214998,0,-0.10890779053453016,8.756622685290871e-7,3.482566848563712e-7,1],"children":[47]},{"name":"ringR2","matrix":[0.32740415558167824,0.9215449252059178,-0.20871391002109999,0,-0.9247379489439189,0.35787879272674883,0.12954736894249522,0,0.19407800285470347,0.15059132061360145,0.9693585426306914,0,-0.05036528454401657,-0.0000016052371535589527,4.672444994541919e-8,1],"children":[48]},{"name":"ringR3","matrix":[-0.1761046063041034,0.9684757596647763,-0.1761867621367795,0,-0.9631682520338195,-0.13258019987043745,0.23394297805232345,0,0.2032092283451327,0.21089594981319038,0.9561531803587123,0,-0.03103541662682244,-3.0238159140494325e-7,1.0149493653334452e-7,1]},{"name":"middleR0","matrix":[0.9715949678499342,0.07942316478038484,0.22292415611556426,0,0.0021870611814246987,0.9389456329722761,-0.34405859262727245,0,-0.23663988515666023,0.3347731460161322,0.9121011487589794,0,0.015004368409548448,-0.03789747559285071,-0.11840171432332504,1],"children":[50]},{"name":"middleR1","matrix":[0.5553107994173612,0.8035320550672936,0.2143971560014305,0,-0.7803805694607654,0.5925789082962372,-0.19964066026314697,0,-0.2874649036495788,-0.056448763507674624,0.9561262809281337,0,-0.08405308890616346,-0.006505995853392878,0.04768475052356713,1],"children":[51]},{"name":"middleR2","matrix":[0.08879710443120326,0.9929710700279697,-0.0782529253782889,0,-0.994351913291897,0.09295691174728005,0.05121793753949388,0,0.058132080433225736,0.0732629420687193,0.995616995890212,0,-0.03485382632135661,-8.711910761110414e-7,5.687864068713161e-8,1],"children":[52]},{"name":"middleR3","matrix":[-0.39130111551873625,0.9201899743025451,-0.011573132440209653,0,-0.916469841177877,-0.38851692499704593,0.09559141295809111,0,0.08346589970038168,0.04801144877015033,0.9953533767824018,0,-0.021520026407418544,0.0000024498489979950244,-2.319409047246354e-7,1]},{"name":"indexR0","matrix":[0.9924949856821521,-0.015960383679783384,0.12123930695208712,0,0.04429996350146886,0.9710287041085228,-0.23482071679780697,0,-0.11397901838144081,0.23842928082863785,0.9644481641955297,0,0.008208597433239987,-0.024426142818117336,-0.08558115402047524,1],"children":[54]},{"name":"indexR1","matrix":[0.47354680941976235,0.8589840377628585,0.19467887636662962,0,-0.7743851521354052,0.5113572811319709,-0.3726142620703964,0,-0.41962015941441955,0.025693871149685077,0.907336073790786,0,-0.09856834107665169,0.003623412222006968,0.03574437022916056,1],"children":[55]},{"name":"indexR2","matrix":[0.1576889066972622,0.9844872324486882,-0.07693555343069684,0,-0.982800284348494,0.1640462679619079,0.08480804633537556,0,0.0961134294502302,0.06223899729451335,0.993422626957366,0,-0.048059240637070656,0.0000010214825608353961,-2.537830411401473e-7,1],"children":[56]},{"name":"indexR3","matrix":[-0.2731627841307491,0.9602360427832893,-0.05769596548496404,0,-0.9566307808254363,-0.2648491478862385,0.1212949588440011,0,0.10119106418389555,0.08832700608274244,0.9909382969927951,0,-0.029573066470800873,0.0000010449747575077412,1.8211388355020633e-8,1]},{"name":"thumbR0","matrix":[0.9074895863436221,0.40948532189952247,-0.09372522224401231,0,-0.10168862000810588,0.4306206705577701,0.8967860584855687,0,0.4075807535896317,-0.8042932184732625,0.43242377380830366,0,-0.04811161456270141,-0.020524061799549194,0.008076955976043246,1],"children":[58]},{"name":"thumbR1","matrix":[0.700984228593079,0.7047124622315871,-0.10955118436772973,0,-0.703939163262287,0.7083363598180574,0.052242327815721794,0,0.1144149065745794,0.04049632039467193,0.9926073127453392,0,-0.05014239995968384,0.0000012048649170835757,5.06395131527268e-7,1],"children":[59]},{"name":"thumbR2","matrix":[0.1904122871745717,0.9761554410140454,-0.10422916170459445,0,-0.9620920172635841,0.206669774218454,0.17795099599174774,0,0.19524885015962473,0.06639398794651465,0.9785038195819107,0,-0.0340417544180701,-1.9638759716220696e-7,9.725766490342042e-8,1]},{"name":"base_body","mesh":0,"skin":0},{"name":"loin","mesh":1,"skin":0},{"name":"sandals","mesh":2,"skin":0},{"name":"band_L","mesh":3,"skin":0},{"name":"band_R","mesh":4,"skin":0},{"name":"gauntlet_L","mesh":5,"skin":0},{"name":"gauntlet_R","mesh":6,"skin":0},{"name":"legs","mesh":7,"skin":0},{"name":"pauldron_L","mesh":8,"skin":0},{"name":"pauldron_R","mesh":9,"skin":0},{"name":"hair_long","mesh":10,"skin":0},{"name":"FantasyWarrior_sword_6_characters_0","mesh":11,"skin":0},{"name":"FantasyWarrior_shield_6_characters_0","mesh":12,"skin":0},{"name":"root","children":[0,60,61,62,63,64,65,66,67,68,69,70,71,72]}],"meshes":[{"name":"base_body","primitives":[{"attributes":{"POSITION":1,"JOINTS_0":2,"WEIGHTS_0":3,"NORMAL":4,"TEXCOORD_0":5},"indices":6,"material":0}]},{"name":"loin","primitives":[{"attributes":{"POSITION":7,"JOINTS_0":8,"WEIGHTS_0":9,"NORMAL":10,"TEXCOORD_0":11},"indices":12,"material":1}]},{"name":"sandals","primitives":[{"attributes":{"POSITION":13,"JOINTS_0":14,"WEIGHTS_0":15,"NORMAL":16,"TEXCOORD_0":17},"indices":18,"material":1}]},{"name":"band_L","primitives":[{"attributes":{"POSITION":19,"JOINTS_0":20,"WEIGHTS_0":21,"NORMAL":22,"TEXCOORD_0":23},"indices":24,"material":2}]},{"name":"band_R","primitives":[{"attributes":{"POSITION":25,"JOINTS_0":26,"WEIGHTS_0":27,"NORMAL":28,"TEXCOORD_0":29},"indices":30,"material":2}]},{"name":"gauntlet_L","primitives":[{"attributes":{"POSITION":31,"JOINTS_0":32,"WEIGHTS_0":33,"NORMAL":34,"TEXCOORD_0":35},"indices":36,"material":2}]},{"name":"gauntlet_R","primitives":[{"attributes":{"POSITION":37,"JOINTS_0":38,"WEIGHTS_0":39,"NORMAL":40,"TEXCOORD_0":41},"indices":42,"material":2}]},{"name":"legs","primitives":[{"attributes":{"POSITION":43,"JOINTS_0":44,"WEIGHTS_0":45,"NORMAL":46,"TEXCOORD_0":47},"indices":48,"material":2}]},{"name":"pauldron_L","primitives":[{"attributes":{"POSITION":49,"JOINTS_0":50,"WEIGHTS_0":51,"NORMAL":52,"TEXCOORD_0":53},"indices":54,"material":3}]},{"name":"pauldron_R","primitives":[{"attributes":{"POSITION":55,"JOINTS_0":56,"WEIGHTS_0":57,"NORMAL":58,"TEXCOORD_0":59},"indices":60,"material":3}]},{"name":"hair_long","primitives":[{"attributes":{"POSITION":61,"JOINTS_0":62,"WEIGHTS_0":63,"NORMAL":64,"TEXCOORD_0":65},"indices":66,"material":4}]},{"name":"FantasyWarrior_sword_6_characters_0","primitives":[{"attributes":{"POSITION":67,"JOINTS_0":68,"WEIGHTS_0":69,"NORMAL":70,"TEXCOORD_0":71},"indices":72,"material":5}]},{"name":"FantasyWarrior_shield_6_characters_0","primitives":[{"attributes":{"POSITION":73,"JOINTS_0":74,"WEIGHTS_0":75,"NORMAL":76,"TEXCOORD_0":77},"indices":78,"material":5}]}],"skins":[{"joints":[0,1,2,3,4,5,6,7,8,9,10,11,12,13,14,15,16,17,18,19,20,21,22,23,24,25,26,27,28,29,30,31,32,33,34,35,36,37,38,39,40,41,42,43,44,45,46,47,48,49,50,51,52,53,54,55,56,57,58,59],"inverseBindMatrices":0,"skeleton":0}],"materials":[{"name":"base","pbrMetallicRoughness":{"baseColorTexture":{"index":0},"metallicFactor":0,"roughnessFactor":0.9}},{"name":"own","pbrMetallicRoughness":{"baseColorTexture":{"index":0},"metallicFactor":0,"roughnessFactor":0.9},"doubleSided":true},{"name":"wear","pbrMetallicRoughness":{"baseColorTexture":{"index":1},"metallicFactor":0,"roughnessFactor":0.9},"doubleSided":true},{"name":"leather","pbrMetallicRoughness":{"baseColorTexture":{"index":2},"metallicFactor":0,"roughnessFactor":0.9},"doubleSided":true},{"name":"hair","pbrMetallicRoughness":{"baseColorTexture":{"index":3},"metallicFactor":0,"roughnessFactor":0.9},"alphaMode":"MASK","alphaCutoff":0.5,"doubleSided":true},{"name":"kit","pbrMetallicRoughness":{"baseColorTexture":{"index":4},"metallicFactor":0,"roughnessFactor":0.9}}],"textures":[{"source":0,"sampler":0},{"source":1,"sampler":0},{"source":2,"sampler":0},{"source":3,"sampler":0},{"source":4,"sampler":0}],"samplers":[{"magFilter":9729,"minFilter":9987,"wrapS":10497,"wrapT":10497}],"images":[{"uri":"atlas.jpg"},{"uri":"wear.jpg"},{"uri":"../base/leather_tile.png"},{"uri":"../base/hair.png"},{"uri":"../base/6_characters_baseColor.jpg"}],"buffers":[{"uri":"scene.bin","byteLength":2102560}],"bufferViews":[{"buffer":0,"byteOffset":0,"byteLength":3840},{"buffer":0,"byteOffset":3840,"byteLength":77124,"target":34962},{"buffer":0,"byteOffset":80964,"byteLength":51416,"target":34962},{"buffer":0,"byteOffset":132380,"byteLength":102832,"target":34962},{"buffer":0,"byteOffset":235212,"byteLength":77124,"target":34962},{"buffer":0,"byteOffset":312336,"byteLength":51416,"target":34962},{"buffer":0,"byteOffset":363752,"byteLength":134880,"target":34963},{"buffer":0,"byteOffset":498632,"byteLength":24108,"target":34962},{"buffer":0,"byteOffset":522740,"byteLength":16072,"target":34962},{"buffer":0,"byteOffset":538812,"byteLength":32144,"target":34962},{"buffer":0,"byteOffset":570956,"byteLength":24108,"target":34962},{"buffer":0,"byteOffset":595064,"byteLength":16072,"target":34962},{"buffer":0,"byteOffset":611136,"byteLength":38400,"target":34963},{"buffer":0,"byteOffset":649536,"byteLength":32424,"target":34962},{"buffer":0,"byteOffset":681960,"byteLength":21616,"target":34962},{"buffer":0,"byteOffset":703576,"byteLength":43232,"target":34962},{"buffer":0,"byteOffset":746808,"byteLength":32424,"target":34962},{"buffer":0,"byteOffset":779232,"byteLength":21616,"target":34962},{"buffer":0,"byteOffset":800848,"byteLength":43200,"target":34963},{"buffer":0,"byteOffset":844048,"byteLength":10140,"target":34962},{"buffer":0,"byteOffset":854188,"byteLength":6760,"target":34962},{"buffer":0,"byteOffset":860948,"byteLength":13520,"target":34962},{"buffer":0,"byteOffset":874468,"byteLength":10140,"target":34962},{"buffer":0,"byteOffset":884608,"byteLength":6760,"target":34962},{"buffer":0,"byteOffset":891368,"byteLength":14388,"target":34963},{"buffer":0,"byteOffset":905756,"byteLength":10128,"target":34962},{"buffer":0,"byteOffset":915884,"byteLength":6752,"target":34962},{"buffer":0,"byteOffset":922636,"byteLength":13504,"target":34962},{"buffer":0,"byteOffset":936140,"byteLength":10128,"target":34962},{"buffer":0,"byteOffset":946268,"byteLength":6752,"target":34962},{"buffer":0,"byteOffset":953020,"byteLength":14388,"target":34963},{"buffer":0,"byteOffset":967408,"byteLength":28776,"target":34962},{"buffer":0,"byteOffset":996184,"byteLength":19184,"target":34962},{"buffer":0,"byteOffset":1015368,"byteLength":38368,"target":34962},{"buffer":0,"byteOffset":1053736,"byteLength":28776,"target":34962},{"buffer":0,"byteOffset":1082512,"byteLength":19184,"target":34962},{"buffer":0,"byteOffset":1101696,"byteLength":36000,"target":34963},{"buffer":0,"byteOffset":1137696,"byteLength":28704,"target":34962},{"buffer":0,"byteOffset":1166400,"byteLength":19136,"target":34962},{"buffer":0,"byteOffset":1185536,"byteLength":38272,"target":34962},{"buffer":0,"byteOffset":1223808,"byteLength":28704,"target":34962},{"buffer":0,"byteOffset":1252512,"byteLength":19136,"target":34962},{"buffer":0,"byteOffset":1271648,"byteLength":36000,"target":34963},{"buffer":0,"byteOffset":1307648,"byteLength":37164,"target":34962},{"buffer":0,"byteOffset":1344812,"byteLength":24776,"target":34962},{"buffer":0,"byteOffset":1369588,"byteLength":49552,"target":34962},{"buffer":0,"byteOffset":1419140,"byteLength":37164,"target":34962},{"buffer":0,"byteOffset":1456304,"byteLength":24776,"target":34962},{"buffer":0,"byteOffset":1481080,"byteLength":57336,"target":34963},{"buffer":0,"byteOffset":1538416,"byteLength":4524,"target":34962},{"buffer":0,"byteOffset":1542940,"byteLength":3016,"target":34962},{"buffer":0,"byteOffset":1545956,"byteLength":6032,"target":34962},{"buffer":0,"byteOffset":1551988,"byteLength":4524,"target":34962},{"buffer":0,"byteOffset":1556512,"byteLength":3016,"target":34962},{"buffer":0,"byteOffset":1559528,"byteLength":5100,"target":34963},{"buffer":0,"byteOffset":1564628,"byteLength":4524,"target":34962},{"buffer":0,"byteOffset":1569152,"byteLength":3016,"target":34962},{"buffer":0,"byteOffset":1572168,"byteLength":6032,"target":34962},{"buffer":0,"byteOffset":1578200,"byteLength":4524,"target":34962},{"buffer":0,"byteOffset":1582724,"byteLength":3016,"target":34962},{"buffer":0,"byteOffset":1585740,"byteLength":5100,"target":34963},{"buffer":0,"byteOffset":1590840,"byteLength":73356,"target":34962},{"buffer":0,"byteOffset":1664196,"byteLength":48904,"target":34962},{"buffer":0,"byteOffset":1713100,"byteLength":97808,"target":34962},{"buffer":0,"byteOffset":1810908,"byteLength":73356,"target":34962},{"buffer":0,"byteOffset":1884264,"byteLength":48904,"target":34962},{"buffer":0,"byteOffset":1933168,"byteLength":71976,"target":34963},{"buffer":0,"byteOffset":2005144,"byteLength":7776,"target":34962},{"buffer":0,"byteOffset":2012920,"byteLength":5184,"target":34962},{"buffer":0,"byteOffset":2018104,"byteLength":10368,"target":34962},{"buffer":0,"byteOffset":2028472,"byteLength":7776,"target":34962},{"buffer":0,"byteOffset":2036248,"byteLength":5184,"target":34962},{"buffer":0,"byteOffset":2041432,"byteLength":4368,"target":34963},{"buffer":0,"byteOffset":2045800,"byteLength":11016,"target":34962},{"buffer":0,"byteOffset":2056816,"byteLength":7344,"target":34962},{"buffer":0,"byteOffset":2064160,"byteLength":14688,"target":34962},{"buffer":0,"byteOffset":2078848,"byteLength":11016,"target":34962},{"buffer":0,"byteOffset":2089864,"byteLength":7344,"target":34962},{"buffer":0,"byteOffset":2097208,"byteLength":5352,"target":34963}],"accessors":[{"bufferView":0,"componentType":5126,"count":60,"type":"MAT4"},{"bufferView":1,"componentType":5126,"count":6427,"type":"VEC3","min":[-0.46842464804649353,-0.0007761999731883407,-0.22769920527935028],"max":[0.468422532081604,1.9595019817352295,0.11469632387161255]},{"bufferView":2,"componentType":5123,"count":6427,"type":"VEC4"},{"bufferView":3,"componentType":5126,"count":6427,"type":"VEC4"},{"bufferView":4,"componentType":5126,"count":6427,"type":"VEC3"},{"bufferView":5,"componentType":5126,"count":6427,"type":"VEC2"},{"bufferView":6,"componentType":5125,"count":33720,"type":"SCALAR"},{"bufferView":7,"componentType":5126,"count":2009,"type":"VEC3","min":[-0.2651357054710388,0.6550895571708679,-0.21879009902477264],"max":[0.2651357054710388,1.1847630739212036,0.106530100107193]},{"bufferView":8,"componentType":5123,"count":2009,"type":"VEC4"},{"bufferView":9,"componentType":5126,"count":2009,"type":"VEC4"},{"bufferView":10,"componentType":5126,"count":2009,"type":"VEC3"},{"bufferView":11,"componentType":5126,"count":2009,"type":"VEC2"},{"bufferView":12,"componentType":5125,"count":9600,"type":"SCALAR"},{"bufferView":13,"componentType":5126,"count":2702,"type":"VEC3","min":[-0.22383539378643036,0.04723412171006203,-0.23196759819984436],"max":[0.22362300753593445,0.4149837791919708,-0.051966600120067596]},{"bufferView":14,"componentType":5123,"count":2702,"type":"VEC4"},{"bufferView":15,"componentType":5126,"count":2702,"type":"VEC4"},{"bufferView":16,"componentType":5126,"count":2702,"type":"VEC3"},{"bufferView":17,"componentType":5126,"count":2702,"type":"VEC2"},{"bufferView":18,"componentType":5125,"count":10800,"type":"SCALAR"},{"bufferView":19,"componentType":5126,"count":845,"type":"VEC3","min":[0.292402446269989,1.0169566869735718,-0.14266473054885864],"max":[0.4843307435512543,1.2841466665267944,0.0685356855392456]},{"bufferView":20,"componentType":5123,"count":845,"type":"VEC4"},{"bufferView":21,"componentType":5126,"count":845,"type":"VEC4"},{"bufferView":22,"componentType":5126,"count":845,"type":"VEC3"},{"bufferView":23,"componentType":5126,"count":845,"type":"VEC2"},{"bufferView":24,"componentType":5125,"count":3597,"type":"SCALAR"},{"bufferView":25,"componentType":5126,"count":844,"type":"VEC3","min":[-0.484212189912796,1.0187679529190063,-0.14266207814216614],"max":[-0.29233554005622864,1.283368706703186,0.06706642359495163]},{"bufferView":26,"componentType":5123,"count":844,"type":"VEC4"},{"bufferView":27,"componentType":5126,"count":844,"type":"VEC4"},{"bufferView":28,"componentType":5126,"count":844,"type":"VEC3"},{"bufferView":29,"componentType":5126,"count":844,"type":"VEC2"},{"bufferView":30,"componentType":5125,"count":3597,"type":"SCALAR"},{"bufferView":31,"componentType":5126,"count":2398,"type":"VEC3","min":[0.21237653493881226,0.8984946012496948,-0.1795792430639267],"max":[0.5350148677825928,1.4744181632995605,0.12272148579359055]},{"bufferView":32,"componentType":5123,"count":2398,"type":"VEC4"},{"bufferView":33,"componentType":5126,"count":2398,"type":"VEC4"},{"bufferView":34,"componentType":5126,"count":2398,"type":"VEC3"},{"bufferView":35,"componentType":5126,"count":2398,"type":"VEC2"},{"bufferView":36,"componentType":5125,"count":9000,"type":"SCALAR"},{"bufferView":37,"componentType":5126,"count":2392,"type":"VEC3","min":[-0.5356075763702393,0.8984709978103638,-0.179716095328331],"max":[-0.21221394836902618,1.4742251634597778,0.1223493441939354]},{"bufferView":38,"componentType":5123,"count":2392,"type":"VEC4"},{"bufferView":39,"componentType":5126,"count":2392,"type":"VEC4"},{"bufferView":40,"componentType":5126,"count":2392,"type":"VEC3"},{"bufferView":41,"componentType":5126,"count":2392,"type":"VEC2"},{"bufferView":42,"componentType":5125,"count":9000,"type":"SCALAR"},{"bufferView":43,"componentType":5126,"count":3097,"type":"VEC3","min":[-0.23586618900299072,-0.0007761999731883407,-0.30254921317100525],"max":[0.23584477603435516,1.1932958364486694,0.14466047286987305]},{"bufferView":44,"componentType":5123,"count":3097,"type":"VEC4"},{"bufferView":45,"componentType":5126,"count":3097,"type":"VEC4"},{"bufferView":46,"componentType":5126,"count":3097,"type":"VEC3"},{"bufferView":47,"componentType":5126,"count":3097,"type":"VEC2"},{"bufferView":48,"componentType":5125,"count":14334,"type":"SCALAR"},{"bufferView":49,"componentType":5126,"count":377,"type":"VEC3","min":[0.18982644379138947,1.5341593027114868,-0.1306414157152176],"max":[0.32388466596603394,1.6654001474380493,0.06155233085155487]},{"bufferView":50,"componentType":5123,"count":377,"type":"VEC4"},{"bufferView":51,"componentType":5126,"count":377,"type":"VEC4"},{"bufferView":52,"componentType":5126,"count":377,"type":"VEC3"},{"bufferView":53,"componentType":5126,"count":377,"type":"VEC2"},{"bufferView":54,"componentType":5125,"count":1275,"type":"SCALAR"},{"bufferView":55,"componentType":5126,"count":377,"type":"VEC3","min":[-0.32388466596603394,1.5341593027114868,-0.1306414157152176],"max":[-0.18982644379138947,1.6654001474380493,0.06155233085155487]},{"bufferView":56,"componentType":5123,"count":377,"type":"VEC4"},{"bufferView":57,"componentType":5126,"count":377,"type":"VEC4"},{"bufferView":58,"componentType":5126,"count":377,"type":"VEC3"},{"bufferView":59,"componentType":5126,"count":377,"type":"VEC2"},{"bufferView":60,"componentType":5125,"count":1275,"type":"SCALAR"},{"bufferView":61,"componentType":5126,"count":6113,"type":"VEC3","min":[-0.23259404301643372,1.3878889083862305,-0.479846328496933],"max":[0.21157753467559814,1.9912798404693604,0.07478068768978119]},{"bufferView":62,"componentType":5123,"count":6113,"type":"VEC4"},{"bufferView":63,"componentType":5126,"count":6113,"type":"VEC4"},{"bufferView":64,"componentType":5126,"count":6113,"type":"VEC3"},{"bufferView":65,"componentType":5126,"count":6113,"type":"VEC2"},{"bufferView":66,"componentType":5125,"count":17994,"type":"SCALAR"},{"bufferView":67,"componentType":5126,"count":648,"type":"VEC3","min":[-0.5208250880241394,0.9065700173377991,-0.06844452768564224],"max":[0.10473252832889557,1.3769981861114502,0.6296972036361694]},{"bufferView":68,"componentType":5123,"count":648,"type":"VEC4"},{"bufferView":69,"componentType":5126,"count":648,"type":"VEC4"},{"bufferView":70,"componentType":5126,"count":648,"type":"VEC3"},{"bufferView":71,"componentType":5126,"count":648,"type":"VEC2"},{"bufferView":72,"componentType":5125,"count":1092,"type":"SCALAR"},{"bufferView":73,"componentType":5126,"count":918,"type":"VEC3","min":[0.1945687234401703,0.8712526559829712,-0.44804835319519043],"max":[0.528387725353241,1.3249156475067139,0.3864443004131317]},{"bufferView":74,"componentType":5123,"count":918,"type":"VEC4"},{"bufferView":75,"componentType":5126,"count":918,"type":"VEC4"},{"bufferView":76,"componentType":5126,"count":918,"type":"VEC3"},{"bufferView":77,"componentType":5126,"count":918,"type":"VEC2"},{"bufferView":78,"componentType":5125,"count":1338,"type":"SCALAR"}]}