{"asset": {"version": "2.0", "generator": "bv-decimate", "extras": {"author": "illustros (https://sketchfab.com/illustros)", "license": "SKETCHFAB Standard (https://sketchfab.com/licenses)", "source": "https://sketchfab.com/3d-models/ancient-warrior-6e3400cfb84e437291627273a41a2b75", "title": "Ancient Warrior"}}, "scene": 0, "scenes": [{"nodes": [0]}], "nodes": [{"mesh": 0, "name": "body"}], "meshes": [{"primitives": [{"attributes": {"POSITION": 0, "NORMAL": 1, "TEXCOORD_0": 2}, "indices": 3, "material": 0}]}], "materials": [{"name": "body", "pbrMetallicRoughness": {"baseColorTexture": {"index": 0}, "metallicFactor": 0, "roughnessFactor": 0.85}}], "textures": [{"source": 0, "sampler": 0}], "samplers": [{"magFilter": 9729, "minFilter": 9987, "wrapS": 10497, "wrapT": 10497}], "images": [{"uri": "textures/baseColor.png"}], "buffers": [{"uri": "lo.bin", "byteLength": 174432}], "bufferViews": [{"buffer": 0, "byteOffset": 0, "byteLength": 56124}, {"buffer": 0, "byteOffset": 56124, "byteLength": 56124}, {"buffer": 0, "byteOffset": 112248, "byteLength": 37416}, {"buffer": 0, "byteOffset": 149664, "byteLength": 24768}], "accessors": [{"bufferView": 0, "componentType": 5126, "count": 4677, "type": "VEC3", "min": [-0.16341030597686768, 0.00020554794173222035, -0.2426954209804535], "max": [0.1523440033197403, 0.9884887933731079, 0.2527991831302643]}, {"bufferView": 1, "componentType": 5126, "count": 4677, "type": "VEC3"}, {"bufferView": 2, "componentType": 5126, "count": 4677, "type": "VEC2"}, {"bufferView": 3, "componentType": 5123, "count": 12384, "type": "SCALAR"}]}