{"asset":{"version":"2.0","generator":"bv-decimate","extras":{"author":"illustros (https://sketchfab.com/illustros)","license":"SKETCHFAB Standard (https://sketchfab.com/licenses)","source":"https://sketchfab.com/3d-models/ancient-warrior-6e3400cfb84e437291627273a41a2b75","title":"Ancient Warrior"}},"scene":0,"scenes":[{"nodes":[0]}],"nodes":[{"mesh":0,"name":"body"}],"meshes":[{"primitives":[{"attributes":{"POSITION":0,"NORMAL":1,"TEXCOORD_0":2},"indices":3,"material":0}]}],"materials":[{"name":"body","pbrMetallicRoughness":{"baseColorTexture":{"index":0},"metallicFactor":0,"roughnessFactor":0.85}}],"textures":[{"source":0,"sampler":0}],"samplers":[{"magFilter":9729,"minFilter":9987,"wrapS":10497,"wrapT":10497}],"images":[{"uri":"textures/baseColor.png"}],"buffers":[{"uri":"scene.bin","byteLength":400328}],"bufferViews":[{"buffer":0,"byteOffset":0,"byteLength":123132},{"buffer":0,"byteOffset":123132,"byteLength":123132},{"buffer":0,"byteOffset":246264,"byteLength":82088},{"buffer":0,"byteOffset":328352,"byteLength":71976}],"accessors":[{"bufferView":0,"componentType":5126,"count":10261,"type":"VEC3","min":[-0.16528300940990448,0.0002037597878370434,-0.25427353382110596],"max":[0.16406819224357605,1,0.25499799847602844]},{"bufferView":1,"componentType":5126,"count":10261,"type":"VEC3"},{"bufferView":2,"componentType":5126,"count":10261,"type":"VEC2"},{"bufferView":3,"componentType":5123,"count":35988,"type":"SCALAR"}]}