{"nodes":[{"name":"n7","matrix":[0.5842059850692749,-0.013803664594888687,0.81148803234100342,0,-0.12132932990789413,0.98713433742523193,0.1041388064622879,0,-0.80248522758483887,-0.15929581224918365,0.57501500844955444,0,0.0089765023440122604,0.83805608749389648,-0.0067551787942647934,1],"children":[1,58,63,68,69,70,71]},{"matrix":[0.99674934148788452,-0.046377938240766525,-0.06587778776884079,0,0.047827418893575668,0.99864321947097778,0.020597731694579124,0,0.064833119511604309,-0.023681538179516792,0.99761503934860229,0,-1.862645149230957e-09,0.095243245363235474,-0.010088344104588032,1],"name":"n8","children":[2]},{"name":"n9","matrix":[0.99886929988861084,0.043394669890403748,-0.019409699365496635,0,-0.042965169996023178,0.99883365631103516,0.022023409605026245,0,0.020342763513326645,-0.02116457000374794,0.9995688796043396,0,-4.6566128730773926e-09,0.11173878610134125,1.3969838619232178e-09,1],"children":[3]},{"children":[4,7,31,55],"matrix":[0.99957722425460815,0.020756568759679794,-0.020360801368951797,0,-0.020677812397480011,0.99977803230285645,0.0040711583569645882,0,0.020440783351659775,-0.0036484198644757271,0.99978440999984741,0,-1.3969838619232178e-09,0.12770135700702667,3.7252902984619141e-09,1],"name":"n10"},{"name":"n11","children":[5],"matrix":[0.98506957292556763,-0.014895649626851082,-0.17151117324829102,0,0.027000753208994865,0.99728822708129883,0.068464130163192749,0,0.1700262576341629,-0.072072863578796387,0.98280048370361328,0,1.1175870895385742e-08,0.14366424083709717,1.4901161193847656e-08,1]},{"children":[6],"name":"n12","matrix":[0.91238325834274292,-0.11264319717884064,-0.3935331404209137,0,0.079624615609645844,0.99186640977859497,-0.099302537739276886,0,0.40151804685592651,0.059267047792673111,0.91393142938613892,0,-1.4901161193847656e-08,0.10415101051330566,0.028113953769207001,1]},{"matrix":[1,-1.862645149230957e-09,-1.6530975699424744e-08,0,1.862645149230957e-09,1,-2.7939677238464355e-09,0,1.6530975699424744e-08,2.7939677238464355e-09,1,0,1.2107193470001221e-08,0.26737791299819946,0.072174549102783203,1],"name":"n13"},{"children":[8],"matrix":[0.13951306045055389,-0.048578299582004547,-0.98902785778045654,0,0.94778871536254883,-0.28269466757774353,0.14758099615573883,0,-0.28676217794418335,-0.95797902345657349,0.0066023794934153557,0,0.058310568332672119,0.11757899075746536,-0.0027936645783483982,1],"name":"n14"},{"children":[9],"name":"n15","matrix":[0.9844556450843811,0.16384956240653992,0.063246943056583405,0,-0.16948226094245911,0.79178351163864136,0.58681696653366089,0,0.046071801334619522,-0.58841466903686523,0.80724555253982544,0,3.7252902984619141e-09,0.12843753397464752,2.1187588572502136e-08,1]},{"matrix":[-0.043362341821193695,0.99903726577758789,0.0066705564968287945,0,-0.98921895027160645,-0.043869089335203171,0.13971954584121704,0,0.13987764716148376,-0.00054009439190849662,0.99016863107681274,0,1.1175870895385742e-08,0.28013262152671814,-1.1175870895385742e-08,1],"name":"n16","children":[10]},{"matrix":[0.82950198650360107,-0.16844615340232849,0.53249627351760864,0,0.051572293043136597,0.97246187925338745,0.22728449106216431,0,-0.5561174750328064,-0.16107088327407837,0.81534618139266968,0,-3.3527612686157227e-08,0.26064437627792358,-2.6077032089233398e-08,1],"children":[11,15,19,23,27],"name":"n17"},{"children":[12],"matrix":[0.73454576730728149,0.67574036121368408,0.061784073710441589,0,-0.56497585773468018,0.5586208701133728,0.60724365711212158,0,0.37582534551620483,-0.48095497488975525,0.7921099066734314,0,-0.034722812473773956,0.035037606954574585,0.007633160799741745,1],"name":"n18"},{"children":[13],"matrix":[0.81394785642623901,-0.54951077699661255,-0.18848566710948944,0,0.54189401865005493,0.83510786294937134,-0.094581611454486847,0,0.20937946438789368,-0.025154750794172287,0.97751080989837646,0,0.0039598257280886173,0.039735719561576843,-4.4703483581542969e-08,1],"name":"n19"},{"name":"n20","matrix":[0.5940890908241272,0.1362246572971344,-0.79278057813644409,0,0.29362201690673828,0.8808281421661377,0.37138670682907104,0,0.74889540672302246,-0.45341455936431885,0.48329177498817444,0,-0.0062962714582681656,0.040731042623519897,-4.4703483581542969e-08,1],"children":[14]},{"name":"n21","matrix":[1,-3.7252860796144205e-09,4.5448535956893465e-07,0,3.7252947393540126e-09,1,-1.8626449715952731e-08,0,-4.5448547325577238e-07,1.8626455045023249e-08,1.0000002384185791,0,0.0023365393280982971,0.03213047981262207,-3.3527612686157227e-08,1]},{"matrix":[0.97256839275360107,0.23190252482891083,0.018219523131847382,0,-0.076183013617992401,0.24353693425655365,0.96689492464065552,0,0.21978825330734253,-0.94175946712493896,0.25452336668968201,0,-0.047464076429605484,0.093477763235569,-0.0027306331321597099,1],"children":[16],"name":"n22"},{"matrix":[0.99861884117126465,0.0059570940211415291,-0.052200973033905029,0,0.045958168804645538,0.38244149088859558,0.92283612489700317,0,0.025461245328187943,-0.92396062612533569,0.3816395103931427,0,-0.00015951227396726608,0.042865157127380371,-3.7252902984619141e-09,1],"name":"n23","children":[17]},{"matrix":[0.99383097887039185,-0.082028314471244812,-0.074640192091464996,0,0.098843082785606384,0.34989887475967407,0.93155843019485474,0,-0.050297655165195465,-0.93318939208984375,0.3558482825756073,0,-9.7906682640314102e-05,0.037693284451961517,7.4505805969238281e-09,1],"children":[18],"name":"n24"},{"name":"n25","matrix":[1,-2.9336659324030734e-08,-3.0267974793218855e-09,0,2.9336662876744413e-08,1.0000001192092896,-2.2351741790771484e-08,0,3.026798811589515e-09,2.2351743567128324e-08,1.0000002384185791,0,0.0002577989362180233,0.030181825160980225,-1.4901161193847656e-08,1]},{"name":"n26","matrix":[0.99650150537490845,0.05267002061009407,0.064890757203102112,0,-0.072207801043987274,0.15162390470504761,0.98579752445220947,0,0.042082961648702621,-0.9870339035987854,0.15489655733108521,0,-0.015793083235621452,0.089140258729457855,-0.0094934906810522079,1],"children":[20]},{"children":[21],"matrix":[0.9977114200592041,0.0030389723833650351,-0.067545115947723389,0,0.065018922090530396,0.23095941543579102,0.97078830003738403,0,0.018550388514995575,-0.97295862436294556,0.23023334145545959,0,-8.1527978181838989e-05,0.046922594308853149,5.5511151231257827e-17,1],"name":"n27"},{"matrix":[0.99340331554412842,-0.085545510053634644,-0.076366670429706573,0,0.1037750318646431,0.38729178905487061,0.91609841585159302,0,-0.048791922628879547,-0.91798025369644165,0.39361447095870972,0,-5.6318938732147217e-05,0.042330577969551086,-5.4482370615005493e-08,1],"children":[22],"name":"n28"},{"matrix":[1,2.7939681679356454e-09,-4.6566128730773926e-09,0,-2.7939679458910405e-09,0.99999988079071045,-2.9685905289511538e-08,0,4.6566128730773926e-09,2.9685908842225217e-08,1,0,0.00013770093210041523,0.035315215587615967,-2.9802322387695312e-08,1],"name":"n29"},{"name":"n30","matrix":[0.9987531304359436,0.014883896335959435,0.047653760761022568,0,-0.048804540187120438,0.09007321298122406,0.9947388768196106,0,0.010513262823224068,-0.99582415819168091,0.090687289834022522,0,0.017410321161150932,0.082752816379070282,-0.0086187291890382767,1],"children":[24]},{"name":"n31","children":[25],"matrix":[0.99677902460098267,-0.073435589671134949,-0.032230690121650696,0,0.062791869044303894,0.46464145183563232,0.8832697868347168,0,-0.049887724220752716,-0.88244861364364624,0.4677560031414032,0,7.8119337558746338e-06,0.044358782470226288,-5.5879354476928711e-09,1]},{"matrix":[0.99153423309326172,-0.11237584054470062,-0.065052159130573273,0,0.09631655365228653,0.30054157972335815,0.94889312982559204,0,-0.087081752717494965,-0.94712537527084351,0.30882084369659424,0,3.5278499126434326e-06,0.041512109339237213,-1.4901161193847656e-08,1],"children":[26],"name":"n32"},{"name":"n33","matrix":[1,1.3969808643210513e-09,-2.4493783712387085e-07,0,-1.3969863044138719e-09,1.0000001192092896,-2.1420419216156006e-08,0,2.4493783712387085e-07,2.1420417439799166e-08,1,0,-1.12154521048069e-05,0.033427923917770386,-7.4505805969238281e-09,1]},{"name":"n34","matrix":[0.98765242099761963,-0.068455018103122711,0.14091448485851288,0,-0.12882392108440399,0.15696956217288971,0.97916555404663086,0,-0.089148059487342834,-0.98522812128067017,0.14621268212795258,0,0.045847311615943909,0.067983880639076233,-0.0040947273373603821,1],"children":[28]},{"children":[29],"name":"n35","matrix":[0.99079453945159912,-0.10905702412128448,-0.080203965306282043,0,0.10748971998691559,0.27362096309661865,0.95581227540969849,0,-0.082292571663856506,-0.9556347131729126,0.28282466530799866,0,5.1259994506835938e-05,0.044123470783233643,-7.4505805969238281e-09,1]},{"children":[30],"matrix":[0.99552005529403687,-0.085562653839588165,-0.040233056992292404,0,0.086967617273330688,0.6616864800453186,0.74471980333328247,0,-0.037098541855812073,-0.74488264322280884,0.66616350412368774,0,7.674098014831543e-06,0.036074914038181305,-5.9604644775390625e-08,1],"name":"n36"},{"name":"n37","matrix":[1.0000001192092896,8.381904947896146e-09,7.4505805969238281e-09,0,-8.3819040597177263e-09,0.99999994039535522,1.7229464077672674e-08,0,-7.4505805969238281e-09,-1.7229467630386353e-08,1.0000001192092896,0,-5.885586142539978e-05,0.0285368412733078,5.5879354476928711e-09,1]},{"name":"n38","matrix":[-0.35544726252555847,0.13331277668476105,0.92514050006866455,0,-0.91365885734558105,-0.25836843252182007,-0.3138049840927124,0,0.19719287753105164,-0.95680403709411621,0.21363872289657593,0,-0.058310549706220627,0.11757252365350723,-0.002732978668063879,1],"children":[32]},{"name":"n39","matrix":[0.99524331092834473,0.091224350035190582,0.034179501235485077,0,-0.091998063027858734,0.7647402286529541,0.63773679733276367,0,0.032038696110248566,-0.63784801959991455,0.76949542760848999,0,1.1175870895385742e-08,0.12843745946884155,-2.6077032089233398e-08,1],"children":[33]},{"name":"n40","matrix":[0.29936107993125916,-0.9396207332611084,-0.16581842303276062,0,0.94366878271102905,0.26589426398277283,0.19694998860359192,0,-0.14096815884113312,-0.2154369056224823,0.96628940105438232,0,-1.4901161193847656e-08,0.28015902638435364,1.4901161193847656e-08,1],"children":[34]},{"children":[35,39,43,47,51],"name":"n41","matrix":[0.94557946920394897,-0.31211435794830322,0.092001728713512421,0,0.26954740285873413,0.90971904993057251,0.31584081053733826,0,-0.18227414786815643,-0.27385371923446655,0.94434118270874023,0,-2.9802322387695312e-08,0.25978699326515198,5.9604644775390625e-08,1]},{"children":[36],"name":"n42","matrix":[0.06567315012216568,-0.78319841623306274,0.61829376220703125,0,0.23148901760578156,0.61468511819839478,0.75403928756713867,0,-0.97061824798583984,0.093608103692531586,0.22167013585567474,0,0.03534650057554245,0.036864444613456726,0.0078700706362724304,1]},{"matrix":[1,1.2469440946460963e-07,-4.7006372483338055e-07,0,-5.6907292211860749e-09,0.96950387954711914,0.24507522583007812,0,4.8628811555317952e-07,-0.24507522583007812,0.96950387954711914,0,-0.0047915177419781685,0.041061267256736755,7.8231096267700195e-08,1],"children":[37],"name":"n43"},{"name":"n44","matrix":[1,-2.672853440799372e-07,6.7885444821058627e-08,0,2.6356860871601384e-07,0.99875646829605103,0.049853704869747162,0,-8.1126181328272651e-08,-0.049853701144456863,0.99875634908676147,0,0.0053234174847602844,0.040032926946878433,-1.2165401130914688e-08,1],"children":[38]},{"name":"n45","matrix":[1,2.6077037418303917e-08,2.644956111907959e-07,0,-2.6077024983806041e-08,1.0000001192092896,-5.7130822739281939e-08,0,-2.6449563961250533e-07,5.7130815633854581e-08,1.0000001192092896,0,-0.00053186016157269478,0.033395975828170776,2.2817403078079224e-08,1]},{"name":"n46","matrix":[0.99928510189056396,-0.037257224321365356,-0.006380762904882431,0,0.02651202492415905,0.57050156593322754,0.82086849212646484,0,-0.026943054050207138,-0.82045102119445801,0.57108157873153687,0,0.047864504158496857,0.094150058925151825,-0.0025134161114692688,1],"children":[40]},{"name":"n47","matrix":[0.99874627590179443,-0.0032518766820430756,0.049951300024986267,0,-0.044583350419998169,0.3959391713142395,0.91719359159469604,0,-0.022760285064578056,-0.9182707667350769,0.39529785513877869,0,8.713454008102417e-05,0.042365029454231262,2.3283064365386963e-09,1],"children":[41]},{"name":"n48","matrix":[0.99451762437820435,0.076933160424232483,0.070823326706886292,0,-0.10023637115955353,0.50843226909637451,0.85524833202362061,0,0.029788084328174591,-0.85765844583511353,0.51335626840591431,0,1.7255544662475586e-05,0.038657166063785553,-2.9802322387695312e-08,1],"children":[42]},{"matrix":[0.99999982118606567,-2.9802322387695312e-08,-2.3841860752327193e-07,0,2.980232949312267e-08,1,3.7252885221050747e-09,0,2.384185791015625e-07,-3.7252947393540126e-09,0.9999997615814209,0,-0.00010439008474349976,0.030306335538625717,-3.7252902984619141e-08,1],"name":"n49"},{"matrix":[0.99672341346740723,-0.079434946179389954,-0.015229788608849049,0,0.050486557185649872,0.46391832828521729,0.884438157081604,0,-0.063189931213855743,-0.88230931758880615,0.46640875935554504,0,0.015187732875347137,0.091969043016433716,-0.0099234730005264282,1],"name":"n50","children":[44]},{"name":"n51","matrix":[0.99670976400375366,0.00059086986584588885,0.081051528453826904,0,-0.080736339092254639,0.095638714730739594,0.99213665723800659,0,-0.0071654408238828182,-0.99541604518890381,0.095371745526790619,0,9.8947435617446899e-05,0.044911369681358337,-2.6077032089233398e-08,1],"children":[45]},{"matrix":[0.99759161472320557,0.064104095101356506,0.026489127427339554,0,-0.068309515714645386,0.84173673391342163,0.5355491042137146,0,0.012034022249281406,-0.53606873750686646,0.84408837556838989,0,7.8722834587097168e-05,0.042935632169246674,4.4703483581542969e-08,1],"children":[46],"name":"n52"},{"name":"n53","matrix":[1,-3.7252892326478104e-08,2.0116566190608864e-07,0,3.7252910090046498e-08,1.0000001192092896,-6.3329935073852539e-08,0,-2.0116569032779807e-07,6.3329942179279897e-08,1.0000001192092896,0,-0.00017751753330230713,0.03525799885392189,3.7252902984619141e-08,1]},{"children":[48],"matrix":[0.99962729215621948,0.010815544985234737,0.025059498846530914,0,-0.02714342437684536,0.29766786098480225,0.95428359508514404,0,0.0028616886120289564,-0.9546082615852356,0.29785054922103882,0,-0.0166765246540308,0.082703940570354462,-0.00669870525598526,1],"name":"n54"},{"name":"n55","children":[49],"matrix":[0.99630874395370483,0.067934416234493256,0.052477169781923294,0,-0.069944769144058228,0.28803750872612,0.95506143569946289,0,0.049766160547733307,-0.95520675182342529,0.29172602295875549,0,1.0546296834945679e-05,0.044794380664825439,2.9802322387695312e-08,1]},{"name":"n56","children":[50],"matrix":[0.99671423435211182,0.07868417352437973,0.019224580377340317,0,-0.073309622704982758,0.77538836002349854,0.62721496820449829,0,0.034445367753505707,-0.6265634298324585,0.77860891819000244,0,4.4256448745727539e-06,0.040868781507015228,6.3329935073852539e-08,1]},{"name":"n57","matrix":[1,1.4901161193847656e-08,-2.4980018054066022e-16,0,-1.4901161193847656e-08,1,-3.7252902984619141e-08,0,-3.0531133177191805e-16,3.7252902984619141e-08,1,0,-1.4938414096832275e-05,0.033530347049236298,-4.4703483581542969e-08,1]},{"matrix":[0.99758237600326538,-0.056280970573425293,-0.04076472669839859,0,0.04909336194396019,0.15557780861854553,0.98660308122634888,0,-0.049184888601303101,-0.98621898889541626,0.15796467661857605,0,-0.046375863254070282,0.06860882043838501,-0.0047644674777984619,1],"children":[52],"name":"n58"},{"matrix":[0.99479812383651733,0.090712681412696838,0.046343933790922165,0,-0.090712547302246094,0.58190822601318359,0.80817949771881104,0,0.04634421318769455,-0.80817949771881104,0.58710998296737671,0,-3.0074268579483032e-05,0.043500557541847229,6.3329935073852539e-08,1],"name":"n59","children":[53]},{"children":[54],"matrix":[0.99875622987747192,0.048615887761116028,0.011077173985540867,0,-0.048615418374538422,0.90009188652038574,0.43297937512397766,0,0.011079199612140656,-0.43297931551933289,0.90133571624755859,0,7.7448785305023193e-06,0.036282759159803391,9.3132246359317605e-10,1],"name":"n60"},{"name":"n61","matrix":[0.99999994039535522,2.5238844614250411e-07,2.514570951461792e-06,0,-2.5238836087737582e-07,1,-4.4703799773060382e-08,0,-2.514570951461792e-06,4.4703163837311877e-08,0.99999994039535522,0,2.2411346435546875e-05,0.027242479845881462,-7.4505805969238281e-08,1]},{"name":"n62","children":[56],"matrix":[1,2.8259143913800244e-09,-2.0403090772447285e-08,0,-9.6326946419367232e-10,-0.98304438591003418,-0.18336774408817291,0,-2.0575207315687294e-08,0.18336671590805054,-0.98303884267807007,0,9.3132257461547852e-09,0.20206679403781891,-0.072288095951080322,1]},{"children":[57],"matrix":[1,-6.5192580223083496e-09,-3.2596290111541748e-09,0,6.5192580223083496e-09,1,-1.4901161193847656e-08,0,3.2596290111541748e-09,1.4901161193847656e-08,1,0,-1.6763806343078613e-08,0.38453483581542969,1.4901161193847656e-08,1],"name":"n63"},{"matrix":[1,9.3132268563778098e-10,-3.7252902984619141e-09,0,-9.3132268563778098e-10,1,1.4901161193847656e-08,0,3.7252902984619141e-09,-1.4901161193847656e-08,1,0,9.3132257461547852e-09,0.38453486561775208,-7.4505805969238281e-09,1],"name":"n64"},{"matrix":[-0.67936158180236816,0.018460506573319435,0.73357182741165161,0,0.59192574024200439,-0.57705998420715332,0.56270486116409302,0,0.43370142579078674,0.8164975643157959,0.3811039924621582,0,0.09587077796459198,-0.052871614694595337,0.0052021481096744537,1],"children":[59],"name":"n65"},{"name":"n66","children":[60],"matrix":[0.96542149782180786,-0.097588673233985901,-0.24173867702484131,0,-0.11104226857423782,0.68502599000930786,-0.72000628709793091,0,0.23586176335811615,0.72195279598236084,0.65050238370895386,0,-2.7755575615628914e-17,0.42478650808334351,2.514570951461792e-08,1]},{"name":"n67","matrix":[0.99007219076156616,-0.021517254412174225,0.13890247046947479,0,-0.097623221576213837,0.6057131290435791,0.78967148065567017,0,-0.10112661123275757,-0.79539191722869873,0.59759914875030518,0,-1.862645149230957e-09,0.39107415080070496,-4.3539330363273621e-08,1],"children":[61]},{"children":[62],"matrix":[0.99188482761383057,-0.035177696496248245,0.12217584252357483,0,-0.052012156695127487,0.76459550857543945,0.64240831136703491,0,-0.11601352691650391,-0.64354956150054932,0.75656086206436157,0,-4.8894435167312622e-09,0.18195214867591858,-4.6566123179658803e-10,1],"name":"n68"},{"name":"n69","matrix":[1,-1.6880269626540212e-08,-1.4300458133220673e-06,0,1.6880177255984563e-08,1.0000001192092896,-6.612391700855369e-08,0,1.4300460406957427e-06,6.6123888586844259e-08,1.0000001192092896,0,2.7939677238464355e-08,0.072402440011501312,1.6763806343078613e-08,1]},{"name":"n70","matrix":[-0.77635955810546875,0.32522860169410706,-0.53989946842193604,0,-0.53411513566970825,-0.79426580667495728,0.28958612680435181,0,-0.33464199304580688,0.51319146156311035,0.79034525156021118,0,-0.095870792865753174,-0.052871637046337128,0.0037591904401779175,1],"children":[64]},{"matrix":[0.99349510669708252,-0.10647302120923996,0.040382973849773407,0,0.10492490977048874,0.71811920404434204,-0.68796461820602417,0,0.044249888509511948,0.68772679567337036,0.72461974620819092,0,-1.1175870895385742e-08,0.42465198040008545,2.2351741790771484e-08,1],"children":[65],"name":"n71"},{"name":"n72","matrix":[0.91221493482589722,0.39651894569396973,-0.10313421487808228,0,-0.06189391016960144,0.3822026252746582,0.92200350761413574,0,0.40500995516777039,-0.83468198776245117,0.37319302558898926,0,-1.3504177331924438e-08,0.39124131202697754,0,1],"children":[66]},{"matrix":[0.98592293262481689,0.00096932041924446821,-0.16719743609428406,0,0.10052395612001419,0.79563438892364502,0.5973781943321228,0,0.13360705971717834,-0.60577613115310669,0.78433668613433838,0,1.6298145055770874e-09,0.18305540084838867,-1.2107193470001221e-08,1],"children":[67],"name":"n73"},{"matrix":[1.0000001192092896,4.0789021227283229e-07,-1.419103341504524e-07,0,-4.0789018385112286e-07,0.99999994039535522,-1.6670669822360651e-07,0,1.4191024888532411e-07,1.6670676927788008e-07,1,0,-3.277091309428215e-08,0.072314903140068054,-9.3132257461547852e-10,1],"name":"n74"},{"matrix":[-0.12095361948013306,0.88942795991897583,-0.44078269600868225,0,0.89266812801361084,-0.096763528883457184,-0.44020691514015198,0,-0.43418422341346741,-0.44671750068664551,-0.7822604775428772,0,0.064330220222473145,0.0082987546920776367,0.14400807023048401,1],"name":"n75"},{"matrix":[0.1237206757068634,0.69158089160919189,-0.71162790060043335,0,0.83302974700927734,-0.46207085251808167,-0.30422693490982056,0,-0.53921866416931152,-0.55516660213470459,-0.63327354192733765,0,0.1656913161277771,0.0082987882196903229,0.058075182139873505,1],"name":"n76"},{"name":"n77","matrix":[0.61213219165802002,-0.79052555561065674,0.019071811810135841,0,-0.79042607545852661,-0.61239582300186157,-0.014098626561462879,0,0.022824874147772789,-0.0064446465112268925,-0.9997219443321228,0,-0.064330205321311951,0.0082987695932388306,0.14400807023048401,1]},{"name":"n78","matrix":[0.45080167055130005,-0.66348403692245483,-0.59713655710220337,0,-0.71495163440704346,-0.66890972852706909,0.20348693430423737,0,-0.53443896770477295,0.33519035577774048,-0.77590203285217285,0,-0.1656913161277771,0.0082987500354647636,0.058075170964002609,1]},{"name":"FantasyWarrior_armor_6_characters_0","mesh":0,"skin":0},{"mesh":1,"skin":1,"name":"FantasyWarrior_body_6_characters_0"},{"mesh":2,"skin":2,"name":"FantasyWarrior_cloak_6_characters_0"},{"mesh":3,"skin":3,"name":"FantasyWarrior_shield_6_characters_0"},{"mesh":4,"name":"FantasyWarrior_sword_6_characters_0","skin":4},{"children":[0,72,73,74,75,76],"name":"root"}],"samplers":[{"wrapS":10497,"minFilter":9987,"wrapT":10497,"magFilter":9729}],"images":[{"uri":"6_characters_baseColor.jpg"}],"buffers":[{"uri":"scene.bin","byteLength":1038464}],"textures":[{"sampler":0,"source":0}],"skins":[{"inverseBindMatrices":7,"joints":[0,1,2,3,4,5,6,7,8,9,10,11,12,13,14,15,16,17,18,19,20,21,22,23,24,25,26,27,28,29,30,31,32,33,34,35,36,37,38,39,40,41,42,43,44,45,46,47,48,49,50,51,52,53,54,55,56,57,58,59,60,61,62,63,64,65,66,67,68,69,70,71],"skeleton":0},{"joints":[0,1,2,3,4,5,6,7,8,9,10,11,12,13,14,15,16,17,18,19,20,21,22,23,24,25,26,27,28,29,30,31,32,33,34,35,36,37,38,39,40,41,42,43,44,45,46,47,48,49,50,51,52,53,54,55,56,57,58,59,60,61,62,63,64,65,66,67,68,69,70,71],"skeleton":0,"inverseBindMatrices":14},{"skeleton":0,"joints":[0,1,2,3,4,5,6,7,8,9,10,11,12,13,14,15,16,17,18,19,20,21,22,23,24,25,26,27,28,29,30,31,32,33,34,35,36,37,38,39,40,41,42,43,44,45,46,47,48,49,50,51,52,53,54,55,56,57,58,59,60,61,62,63,64,65,66,67,68,69,70,71],"inverseBindMatrices":21},{"skeleton":0,"joints":[0,1,2,3,4,5,6,7,8,9,10,11,12,13,14,15,16,17,18,19,20,21,22,23,24,25,26,27,28,29,30,31,32,33,34,35,36,37,38,39,40,41,42,43,44,45,46,47,48,49,50,51,52,53,54,55,56,57,58,59,60,61,62,63,64,65,66,67,68,69,70,71],"inverseBindMatrices":28},{"inverseBindMatrices":35,"skeleton":0,"joints":[0,1,2,3,4,5,6,7,8,9,10,11,12,13,14,15,16,17,18,19,20,21,22,23,24,25,26,27,28,29,30,31,32,33,34,35,36,37,38,39,40,41,42,43,44,45,46,47,48,49,50,51,52,53,54,55,56,57,58,59,60,61,62,63,64,65,66,67,68,69,70,71]}],"accessors":[{"componentType":5126,"type":"MAT4","bufferView":0,"count":72},{"max":[0.46370697021484375,1.9016146659851074,0.26156520843505859],"type":"VEC3","componentType":5126,"min":[-0.46370697021484375,-1.3504177331924438e-07,-0.20540684461593628],"bufferView":1,"count":9636},{"type":"VEC4","bufferView":2,"componentType":5123,"count":9636},{"type":"VEC4","componentType":5126,"count":9636,"bufferView":3},{"count":9636,"bufferView":4,"componentType":5126,"type":"VEC3"},{"type":"VEC2","bufferView":5,"componentType":5126,"count":9636},{"componentType":5125,"type":"SCALAR","bufferView":6,"count":15018},{"count":72,"componentType":5126,"type":"MAT4","bufferView":7},{"componentType":5126,"bufferView":8,"type":"VEC3","max":[0.45096898078918457,1.8278099298477173,0.25586086511611938],"min":[-0.45096898078918457,0.72658735513687134,-0.1205950453877449],"count":3984},{"type":"VEC4","bufferView":9,"componentType":5123,"count":3984},{"componentType":5126,"type":"VEC4","bufferView":10,"count":3984},{"type":"VEC3","bufferView":11,"componentType":5126,"count":3984},{"bufferView":12,"componentType":5126,"count":3984,"type":"VEC2"},{"type":"SCALAR","bufferView":13,"componentType":5125,"count":5796},{"count":72,"bufferView":14,"type":"MAT4","componentType":5126},{"bufferView":15,"componentType":5126,"count":1096,"max":[0.33631980419158936,1.529700756072998,0.076487407088279724],"min":[-0.35082358121871948,0.30885946750640869,-0.25440964102745056],"type":"VEC3"},{"type":"VEC4","componentType":5123,"bufferView":16,"count":1096},{"bufferView":17,"count":1096,"type":"VEC4","componentType":5126},{"bufferView":18,"type":"VEC3","count":1096,"componentType":5126},{"componentType":5126,"count":1096,"type":"VEC2","bufferView":19},{"count":1512,"type":"SCALAR","bufferView":20,"componentType":5125},{"componentType":5126,"bufferView":21,"count":72,"type":"MAT4"},{"count":918,"min":[0.24779868125915527,0.66193509101867676,-0.29401913285255432],"max":[0.51595515012741089,1.1182838678359985,0.49867260456085205],"bufferView":22,"componentType":5126,"type":"VEC3"},{"componentType":5123,"bufferView":23,"count":918,"type":"VEC4"},{"bufferView":24,"componentType":5126,"count":918,"type":"VEC4"},{"bufferView":25,"count":918,"componentType":5126,"type":"VEC3"},{"bufferView":26,"componentType":5126,"count":918,"type":"VEC2"},{"bufferView":27,"type":"SCALAR","componentType":5125,"count":1338},{"bufferView":28,"count":72,"type":"MAT4","componentType":5126},{"componentType":5126,"max":[-0.30247652530670166,1.0121375322341919,1.1055387258529663],"count":648,"min":[-0.48926228284835815,0.76678842306137085,0.007000356912612915],"bufferView":29,"type":"VEC3"},{"count":648,"componentType":5123,"type":"VEC4","bufferView":30},{"type":"VEC4","componentType":5126,"count":648,"bufferView":31},{"bufferView":32,"componentType":5126,"count":648,"type":"VEC3"},{"bufferView":33,"type":"VEC2","count":648,"componentType":5126},{"bufferView":34,"type":"SCALAR","componentType":5125,"count":1092},{"count":72,"type":"MAT4","bufferView":35,"componentType":5126}],"bufferViews":[{"byteLength":4608,"byteOffset":0,"buffer":0},{"byteOffset":4608,"byteLength":115632,"target":34962,"buffer":0},{"target":34962,"buffer":0,"byteLength":77088,"byteOffset":120240},{"byteOffset":197328,"buffer":0,"target":34962,"byteLength":154176},{"byteLength":115632,"buffer":0,"target":34962,"byteOffset":351504},{"byteLength":77088,"target":34962,"byteOffset":467136,"buffer":0},{"target":34963,"byteOffset":544224,"byteLength":60072,"buffer":0},{"byteLength":4608,"byteOffset":604296,"buffer":0},{"buffer":0,"target":34962,"byteLength":47808,"byteOffset":608904},{"byteLength":31872,"byteOffset":656712,"buffer":0,"target":34962},{"buffer":0,"byteLength":63744,"byteOffset":688584,"target":34962},{"byteLength":47808,"byteOffset":752328,"target":34962,"buffer":0},{"target":34962,"byteOffset":800136,"buffer":0,"byteLength":31872},{"target":34963,"byteLength":23184,"byteOffset":832008,"buffer":0},{"buffer":0,"byteLength":4608,"byteOffset":855192},{"target":34962,"buffer":0,"byteLength":13152,"byteOffset":859800},{"target":34962,"byteLength":8768,"byteOffset":872952,"buffer":0},{"buffer":0,"byteOffset":881720,"byteLength":17536,"target":34962},{"target":34962,"buffer":0,"byteOffset":899256,"byteLength":13152},{"byteLength":8768,"target":34962,"buffer":0,"byteOffset":912408},{"byteLength":6048,"target":34963,"buffer":0,"byteOffset":921176},{"buffer":0,"byteOffset":927224,"byteLength":4608},{"byteOffset":931832,"byteLength":11016,"target":34962,"buffer":0},{"target":34962,"byteOffset":942848,"byteLength":7344,"buffer":0},{"byteLength":14688,"target":34962,"byteOffset":950192,"buffer":0},{"buffer":0,"byteLength":11016,"byteOffset":964880,"target":34962},{"target":34962,"byteOffset":975896,"buffer":0,"byteLength":7344},{"buffer":0,"byteOffset":983240,"target":34963,"byteLength":5352},{"byteOffset":988592,"buffer":0,"byteLength":4608},{"target":34962,"buffer":0,"byteLength":7776,"byteOffset":993200},{"buffer":0,"byteOffset":1000976,"byteLength":5184,"target":34962},{"byteOffset":1006160,"target":34962,"byteLength":10368,"buffer":0},{"buffer":0,"target":34962,"byteLength":7776,"byteOffset":1016528},{"byteOffset":1024304,"byteLength":5184,"target":34962,"buffer":0},{"buffer":0,"byteOffset":1029488,"byteLength":4368,"target":34963},{"byteOffset":1033856,"byteLength":4608,"buffer":0}],"asset":{"version":"2.0","generator":"bv-usd-export"},"meshes":[{"name":"FantasyWarrior_armor_6_characters_0","primitives":[{"indices":6,"material":0,"attributes":{"WEIGHTS_0":3,"NORMAL":4,"JOINTS_0":2,"POSITION":1,"TEXCOORD_0":5}}]},{"primitives":[{"attributes":{"JOINTS_0":9,"WEIGHTS_0":10,"TEXCOORD_0":12,"POSITION":8,"NORMAL":11},"indices":13,"material":0}],"name":"FantasyWarrior_body_6_characters_0"},{"name":"FantasyWarrior_cloak_6_characters_0","primitives":[{"material":0,"attributes":{"POSITION":15,"WEIGHTS_0":17,"NORMAL":18,"JOINTS_0":16,"TEXCOORD_0":19},"indices":20}]},{"primitives":[{"indices":27,"material":0,"attributes":{"WEIGHTS_0":24,"TEXCOORD_0":26,"POSITION":22,"JOINTS_0":23,"NORMAL":25}}],"name":"FantasyWarrior_shield_6_characters_0"},{"name":"FantasyWarrior_sword_6_characters_0","primitives":[{"attributes":{"JOINTS_0":30,"WEIGHTS_0":31,"NORMAL":32,"POSITION":29,"TEXCOORD_0":33},"indices":34,"material":0}]}],"materials":[{"pbrMetallicRoughness":{"baseColorTexture":{"index":0},"metallicFactor":0,"roughnessFactor":0.90000000000000002},"name":"warrior"}],"scene":0,"scenes":[{"nodes":[77]}]}