{"asset": {"version": "2.0", "generator": "bv-decimate", "extras": {"author": "illustros (https://sketchfab.com/illustros)", "license": "SKETCHFAB Standard (https://sketchfab.com/licenses)", "source": "https://sketchfab.com/3d-models/ancient-warrior-7812bc93a0aa4326a9d1714fa3e44a69", "title": "Ancient Warrior"}}, "scene": 0, "scenes": [{"nodes": [0]}], "nodes": [{"mesh": 0, "name": "body"}], "meshes": [{"primitives": [{"attributes": {"POSITION": 0, "NORMAL": 1, "TEXCOORD_0": 2}, "indices": 3, "material": 0}]}], "materials": [{"name": "body", "pbrMetallicRoughness": {"baseColorTexture": {"index": 0}, "metallicFactor": 0, "roughnessFactor": 0.85}}], "textures": [{"source": 0, "sampler": 0}], "samplers": [{"magFilter": 9729, "minFilter": 9987, "wrapS": 10497, "wrapT": 10497}], "images": [{"uri": "textures/baseColor.png"}], "buffers": [{"uri": "lo.bin", "byteLength": 280836}], "bufferViews": [{"buffer": 0, "byteOffset": 0, "byteLength": 90432}, {"buffer": 0, "byteOffset": 90432, "byteLength": 90432}, {"buffer": 0, "byteOffset": 180864, "byteLength": 60288}, {"buffer": 0, "byteOffset": 241152, "byteLength": 39684}], "accessors": [{"bufferView": 0, "componentType": 5126, "count": 7536, "type": "VEC3", "min": [-0.1322474628686905, 0.0022260204423218966, -0.18353816866874695], "max": [0.13001365959644318, 0.9951519966125488, 0.17455360293388367]}, {"bufferView": 1, "componentType": 5126, "count": 7536, "type": "VEC3"}, {"bufferView": 2, "componentType": 5126, "count": 7536, "type": "VEC2"}, {"bufferView": 3, "componentType": 5123, "count": 19842, "type": "SCALAR"}]}