{"asset":{"version":"2.0","generator":"bv-decimate","extras":{"author":"illustros (https://sketchfab.com/illustros)","license":"SKETCHFAB Standard (https://sketchfab.com/licenses)","source":"https://sketchfab.com/3d-models/ancient-warrior-7812bc93a0aa4326a9d1714fa3e44a69","title":"Ancient Warrior"}},"scene":0,"scenes":[{"nodes":[0]}],"nodes":[{"mesh":0,"name":"body"}],"meshes":[{"primitives":[{"attributes":{"POSITION":0,"NORMAL":1,"TEXCOORD_0":2},"indices":3,"material":0}]}],"materials":[{"name":"body","pbrMetallicRoughness":{"baseColorTexture":{"index":0},"metallicFactor":0,"roughnessFactor":0.85}}],"textures":[{"source":0,"sampler":0}],"samplers":[{"magFilter":9729,"minFilter":9987,"wrapS":10497,"wrapT":10497}],"images":[{"uri":"textures/baseColor.png"}],"buffers":[{"uri":"scene.bin","byteLength":437052}],"bufferViews":[{"buffer":0,"byteOffset":0,"byteLength":136908},{"buffer":0,"byteOffset":136908,"byteLength":136908},{"buffer":0,"byteOffset":273816,"byteLength":91272},{"buffer":0,"byteOffset":365088,"byteLength":71964}],"accessors":[{"bufferView":0,"componentType":5126,"count":11409,"type":"VEC3","min":[-0.13430336117744446,0.0005479365936480463,-0.1856045424938202],"max":[0.1343154013156891,0.9997320175170898,0.18617255985736847]},{"bufferView":1,"componentType":5126,"count":11409,"type":"VEC3"},{"bufferView":2,"componentType":5126,"count":11409,"type":"VEC2"},{"bufferView":3,"componentType":5123,"count":35982,"type":"SCALAR"}]}